<svg width="1071" height="285" viewBox="0 0 1071 285" fill="none" xmlns="http://www.w3.org/2000/svg">
<path d="M57.6852 284.1L57.6941 283.1H57.6852V284.1ZM112.285 151.5L112.274 152.5L113.262 152.511L113.285 151.524L112.285 151.5ZM68.7852 150.3L67.7852 150.292L67.7776 151.247L68.7317 151.299L68.7852 150.3ZM44.7852 174.9H45.7852L45.7851 174.889L44.7852 174.9ZM69.3852 192.3L69.3472 191.301L68.3546 191.338L68.3856 192.331L69.3852 192.3ZM113.485 191.4L114.485 191.383L114.469 190.4H113.485V191.4ZM57.6852 283.1C47.6077 283.1 39.086 281.229 31.9589 277.264C24.8387 273.302 19.0408 267.211 14.4671 258.654C5.29133 241.486 1.08516 214.477 1.08516 175.2H-0.914844C-0.914844 214.523 3.27898 241.964 12.7032 259.596C17.4295 268.439 23.4816 274.836 30.9864 279.011C38.4843 283.183 47.3626 285.1 57.6852 285.1V283.1ZM1.08516 175.2C1.08516 138.182 5.21412 110.863 14.6586 92.8264C19.3693 83.8298 25.3905 77.1658 32.8677 72.7435C40.347 68.32 49.35 66.1 60.0852 66.1V64.1C49.0703 64.1 39.6984 66.38 31.8495 71.0221C23.9986 75.6654 17.7386 82.6326 12.8868 91.8986C3.20619 110.387 -0.914844 138.118 -0.914844 175.2H1.08516ZM60.0852 66.1C70.0595 66.1 78.2751 68.2966 84.9809 72.3274C91.6869 76.3583 96.9419 82.2588 100.94 89.758C108.955 104.791 111.884 126.181 111.285 151.476L113.285 151.524C113.886 126.119 110.965 104.309 102.705 88.817C98.5659 81.0537 93.0772 74.8605 86.0113 70.6132C78.9453 66.3659 70.3608 64.1 60.0852 64.1V66.1ZM112.296 150.5C98.9552 150.35 88.0881 150.05 80.5575 149.788C76.7922 149.657 73.8611 149.535 71.872 149.446C70.8775 149.402 70.1184 149.366 69.6084 149.34C69.3534 149.328 69.1606 149.318 69.0317 149.311C68.9673 149.308 68.9189 149.306 68.8866 149.304C68.8705 149.303 68.8584 149.302 68.8504 149.302C68.8464 149.302 68.8434 149.302 68.8415 149.302C68.8405 149.302 68.8398 149.301 68.8393 149.301C68.8391 149.301 68.8389 149.301 68.8388 149.301C68.8387 149.301 68.8387 149.301 68.7852 150.3C68.7317 151.299 68.7318 151.299 68.7319 151.299C68.7321 151.299 68.7323 151.299 68.7326 151.299C68.7331 151.299 68.7339 151.299 68.735 151.299C68.7371 151.299 68.7403 151.299 68.7445 151.299C68.7528 151.3 68.7652 151.3 68.7817 151.301C68.8147 151.303 68.8638 151.306 68.929 151.309C69.0593 151.316 69.2535 151.325 69.51 151.338C70.023 151.363 70.785 151.4 71.7827 151.444C73.778 151.534 76.7156 151.656 80.4879 151.787C88.0322 152.05 98.9151 152.35 112.274 152.5L112.296 150.5ZM69.7851 150.308C69.935 131.418 69.414 118.567 67.7397 110.424C66.9033 106.356 65.7574 103.343 64.1699 101.333C62.5364 99.2649 60.4659 98.3 57.9852 98.3V100.3C59.8544 100.3 61.3464 100.985 62.6004 102.573C63.9004 104.219 64.967 106.869 65.7806 110.826C67.4064 118.733 67.9353 131.382 67.7852 150.292L69.7851 150.308ZM57.9852 98.3C54.9582 98.3 52.4926 99.7852 50.5685 102.765C48.6813 105.688 47.2755 110.095 46.2372 116.118C44.1573 128.181 43.4853 147.165 43.7852 174.911L45.7851 174.889C45.4851 147.135 46.163 128.319 48.2081 116.457C49.2323 110.517 50.5827 106.431 52.2487 103.85C53.8777 101.327 55.7621 100.3 57.9852 100.3V98.3ZM43.7852 174.9C43.7852 203.841 44.6078 222.678 46.7264 234.292C47.784 240.09 49.1837 244.208 51.0516 246.894C52.9675 249.65 55.3826 250.9 58.2852 250.9V248.9C56.0878 248.9 54.2654 248.013 52.6937 245.753C51.0741 243.423 49.7363 239.648 48.6939 233.933C46.6125 222.522 45.7852 203.859 45.7852 174.9H43.7852ZM58.2852 250.9C60.4112 250.9 62.4145 250.203 64.1324 248.325C65.8068 246.495 67.1528 243.605 68.1823 239.334C70.2416 230.792 71.1348 216.274 70.3847 192.269L68.3856 192.331C69.1355 216.326 68.2287 230.608 66.238 238.866C65.2425 242.995 64.001 245.505 62.6567 246.975C61.3558 248.397 59.9091 248.9 58.2852 248.9V250.9ZM69.4231 193.299C81.2629 192.85 92.2795 192.625 100.337 192.512C104.365 192.456 107.653 192.428 109.934 192.414C111.074 192.407 111.962 192.404 112.565 192.402C112.867 192.401 113.097 192.4 113.252 192.4C113.329 192.4 113.388 192.4 113.427 192.4C113.446 192.4 113.461 192.4 113.471 192.4C113.476 192.4 113.479 192.4 113.482 192.4C113.483 192.4 113.484 192.4 113.484 192.4C113.485 192.4 113.485 192.4 113.485 192.4C113.485 192.4 113.485 192.4 113.485 191.4C113.485 190.4 113.485 190.4 113.485 190.4C113.485 190.4 113.484 190.4 113.484 190.4C113.483 190.4 113.483 190.4 113.481 190.4C113.479 190.4 113.475 190.4 113.47 190.4C113.46 190.4 113.445 190.4 113.425 190.4C113.386 190.4 113.327 190.4 113.249 190.4C113.093 190.4 112.862 190.401 112.559 190.402C111.954 190.404 111.064 190.407 109.921 190.414C107.636 190.428 104.343 190.456 100.309 190.513C92.2408 190.625 81.2075 190.85 69.3472 191.301L69.4231 193.299ZM112.485 191.417C113.084 227.195 107.534 250.188 97.8139 264.179C88.1498 278.09 74.2558 283.248 57.6941 283.1L57.6762 285.1C74.7145 285.252 89.3205 279.91 99.4564 265.321C109.536 250.812 115.086 227.305 114.485 191.383L112.485 191.417ZM226.367 284.7L225.4 284.954L225.61 285.753L226.434 285.698L226.367 284.7ZM203.867 203.1L204.829 202.827L204.571 201.919L203.65 202.124L203.867 203.1ZM195.467 204.3L195.357 203.306L194.467 203.405V204.3H195.467ZM196.667 274.8V275.8H197.685L197.667 274.782L196.667 274.8ZM154.667 275.1L153.667 275.085L153.651 276.113L154.68 276.1L154.667 275.1ZM154.967 70.5L154.79 69.5158L153.961 69.665L153.967 70.5071L154.967 70.5ZM238.367 190.5L237.816 189.666L237.198 190.074L237.408 190.784L238.367 190.5ZM268.667 281.4L268.763 282.395L270.024 282.274L269.613 281.076L268.667 281.4ZM195.467 176.1L194.467 176.118L194.486 177.162L195.528 177.098L195.467 176.1ZM194.567 101.7L194.457 100.706L193.561 100.806L193.567 101.707L194.567 101.7ZM226.367 284.7C227.335 284.446 227.334 284.446 227.334 284.446C227.334 284.446 227.334 284.445 227.334 284.445C227.334 284.444 227.333 284.443 227.333 284.441C227.332 284.437 227.331 284.431 227.329 284.424C227.325 284.408 227.319 284.386 227.311 284.356C227.295 284.296 227.271 284.206 227.24 284.086C227.177 283.847 227.083 283.49 226.958 283.018C226.708 282.073 226.335 280.667 225.843 278.822C224.858 275.131 223.395 269.683 221.482 262.65C217.656 248.584 212.03 228.181 204.829 202.827L202.905 203.373C210.104 228.719 215.728 249.116 219.552 263.175C221.464 270.205 222.926 275.65 223.91 279.338C224.402 281.181 224.775 282.586 225.024 283.529C225.149 284.001 225.243 284.357 225.306 284.595C225.337 284.714 225.361 284.804 225.376 284.864C225.384 284.894 225.39 284.916 225.394 284.931C225.396 284.939 225.397 284.944 225.398 284.948C225.399 284.95 225.399 284.951 225.4 284.952C225.4 284.953 225.4 284.953 225.4 284.953C225.4 284.953 225.4 284.954 226.367 284.7ZM203.65 202.124C201.016 202.709 198.08 203.004 195.357 203.306L195.578 205.294C198.254 204.996 201.319 204.691 204.084 204.076L203.65 202.124ZM194.467 204.3C194.467 216.912 195.068 241.233 195.667 274.818L197.667 274.782C197.067 241.167 196.467 216.888 196.467 204.3H194.467ZM196.667 274.8C196.667 273.8 196.667 273.8 196.667 273.8C196.667 273.8 196.667 273.8 196.666 273.8C196.666 273.8 196.665 273.8 196.664 273.8C196.662 273.8 196.658 273.8 196.654 273.8C196.645 273.8 196.632 273.8 196.615 273.8C196.58 273.8 196.528 273.8 196.459 273.8C196.321 273.8 196.116 273.8 195.846 273.801C195.306 273.801 194.509 273.802 193.477 273.805C191.414 273.809 188.413 273.819 184.662 273.838C177.16 273.875 166.658 273.95 154.655 274.1L154.68 276.1C166.677 275.95 177.174 275.875 184.672 275.837C188.421 275.819 191.42 275.809 193.482 275.805C194.513 275.802 195.309 275.801 195.848 275.801C196.117 275.8 196.322 275.8 196.46 275.8C196.528 275.8 196.58 275.8 196.615 275.8C196.632 275.8 196.645 275.8 196.654 275.8C196.659 275.8 196.662 275.8 196.664 275.8C196.665 275.8 196.666 275.8 196.666 275.8C196.667 275.8 196.667 275.8 196.667 275.8C196.667 275.8 196.667 275.8 196.667 274.8ZM154.667 275.1C155.667 275.115 155.667 275.115 155.667 275.114C155.667 275.114 155.667 275.113 155.667 275.112C155.667 275.109 155.667 275.106 155.667 275.101C155.667 275.091 155.668 275.077 155.668 275.058C155.669 275.02 155.669 274.963 155.67 274.887C155.673 274.736 155.676 274.509 155.68 274.207C155.689 273.605 155.701 272.705 155.717 271.514C155.748 269.133 155.791 265.591 155.841 260.945C155.939 251.653 156.061 237.945 156.155 220.28C156.342 184.952 156.417 133.797 155.967 70.4929L153.967 70.5071C154.417 133.803 154.342 184.948 154.155 220.27C154.061 237.93 153.939 251.635 153.841 260.924C153.791 265.568 153.748 269.109 153.717 271.488C153.702 272.678 153.689 273.577 153.681 274.179C153.676 274.48 153.673 274.706 153.671 274.858C153.67 274.933 153.669 274.99 153.668 275.028C153.668 275.047 153.668 275.061 153.668 275.07C153.667 275.075 153.667 275.079 153.667 275.081C153.667 275.082 153.667 275.083 153.667 275.084C153.667 275.084 153.667 275.085 154.667 275.1ZM155.144 71.4842C170.112 68.79 183.248 67.3 194.867 67.3V65.3C183.086 65.3 169.823 66.8099 154.79 69.5158L155.144 71.4842ZM194.867 67.3C218.094 67.3 235.043 73.5503 246.195 85.1796C257.355 96.8166 262.867 114.002 262.867 136.2H264.867C264.867 113.698 259.279 95.9334 247.639 83.7953C235.991 71.6497 218.441 65.3 194.867 65.3V67.3ZM262.867 136.2C262.867 162.622 253.391 179.38 237.816 189.666L238.918 191.334C255.143 180.62 264.867 163.178 264.867 136.2H262.867ZM237.408 190.784C239.815 198.908 249.723 229.229 267.721 281.724L269.613 281.076C251.612 228.571 241.719 198.292 239.326 190.216L237.408 190.784ZM268.667 281.4C268.571 280.405 268.571 280.405 268.571 280.405C268.571 280.405 268.571 280.405 268.571 280.405C268.57 280.405 268.57 280.405 268.569 280.405C268.567 280.405 268.564 280.405 268.56 280.406C268.553 280.406 268.542 280.407 268.527 280.409C268.497 280.412 268.451 280.416 268.391 280.422C268.271 280.433 268.091 280.45 267.852 280.472C267.374 280.517 266.662 280.582 265.723 280.667C263.846 280.835 261.063 281.079 257.447 281.378C250.214 281.978 239.644 282.803 226.3 283.702L226.434 285.698C239.79 284.797 250.37 283.972 257.612 283.372C261.233 283.071 264.02 282.827 265.902 282.658C266.843 282.574 267.558 282.508 268.037 282.464C268.277 282.441 268.458 282.424 268.58 282.413C268.64 282.407 268.686 282.403 268.717 282.4C268.732 282.398 268.743 282.397 268.751 282.397C268.755 282.396 268.758 282.396 268.76 282.396C268.761 282.396 268.762 282.396 268.762 282.395C268.762 282.395 268.763 282.395 268.763 282.395C268.763 282.395 268.763 282.395 268.667 281.4ZM195.528 177.098C203.09 176.635 209.834 173.92 214.663 167.834C219.469 161.777 222.267 152.521 222.267 139.2H220.267C220.267 152.279 217.515 161.023 213.096 166.591C208.701 172.13 202.545 174.665 195.406 175.102L195.528 177.098ZM222.267 139.2C222.267 127.58 220.537 117.927 216.7 111.145C212.822 104.289 206.8 100.4 198.467 100.4V102.4C206.034 102.4 211.413 105.861 214.959 112.13C218.548 118.473 220.267 127.72 220.267 139.2H222.267ZM198.467 100.4C197.815 100.4 196.797 100.48 195.977 100.554C195.559 100.592 195.18 100.63 194.905 100.658C194.767 100.673 194.656 100.685 194.578 100.693C194.54 100.697 194.51 100.7 194.489 100.703C194.479 100.704 194.471 100.705 194.465 100.705C194.463 100.705 194.461 100.706 194.459 100.706C194.458 100.706 194.458 100.706 194.457 100.706C194.457 100.706 194.457 100.706 194.457 100.706C194.457 100.706 194.457 100.706 194.457 100.706C194.457 100.706 194.457 100.706 194.567 101.7C194.678 102.694 194.678 102.694 194.678 102.694C194.678 102.694 194.678 102.694 194.678 102.694C194.678 102.694 194.678 102.694 194.678 102.694C194.678 102.694 194.679 102.694 194.679 102.694C194.68 102.694 194.682 102.693 194.685 102.693C194.69 102.693 194.697 102.692 194.707 102.691C194.726 102.689 194.755 102.685 194.793 102.681C194.868 102.673 194.976 102.662 195.111 102.648C195.38 102.62 195.75 102.583 196.158 102.546C196.987 102.47 197.919 102.4 198.467 102.4V100.4ZM193.567 101.707C193.717 121.96 193.942 140.562 194.13 154.101C194.224 160.871 194.308 166.375 194.369 170.186C194.399 172.092 194.424 173.575 194.441 174.581C194.449 175.084 194.456 175.468 194.461 175.727C194.463 175.856 194.464 175.954 194.466 176.019C194.466 176.052 194.467 176.076 194.467 176.093C194.467 176.101 194.467 176.107 194.467 176.111C194.467 176.114 194.467 176.115 194.467 176.116C194.467 176.117 194.467 176.117 194.467 176.117C194.467 176.118 194.467 176.118 195.467 176.1C196.467 176.082 196.467 176.082 196.467 176.082C196.467 176.082 196.467 176.081 196.467 176.081C196.467 176.08 196.467 176.078 196.467 176.076C196.467 176.072 196.467 176.066 196.467 176.058C196.466 176.041 196.466 176.017 196.465 175.984C196.464 175.919 196.462 175.821 196.46 175.692C196.456 175.434 196.449 175.05 196.441 174.547C196.424 173.542 196.399 172.059 196.369 170.154C196.308 166.344 196.223 160.842 196.13 154.074C195.942 140.538 195.717 121.94 195.567 101.693L193.567 101.707ZM350.091 58.8L349.471 59.5844L350.266 60.213L350.884 59.4097L350.091 58.8ZM330.891 45L330.059 44.4453L329.465 45.3367L330.395 45.8682L330.891 45ZM359.691 -2.00272e-05L360.304 -0.790105L359.409 -1.48487L358.831 -0.509822L359.691 -2.00272e-05ZM384.291 18.3L385.044 18.9585L385.795 18.1004L384.846 17.4679L384.291 18.3ZM306.591 278.1L305.591 278.107L305.598 279.087L306.578 279.1L306.591 278.1ZM304.191 70.8L304.179 69.8001L303.177 69.8125L303.192 70.8149L304.191 70.8ZM389.091 69.6L390.091 69.6182L390.11 68.5848L389.077 68.6001L389.091 69.6ZM389.391 109.5L389.404 110.5L390.417 110.488L390.391 109.474L389.391 109.5ZM344.691 110.4L344.662 109.4L343.707 109.429L343.692 110.384L344.691 110.4ZM344.991 159L343.992 159.02L344.011 160H344.991V159ZM383.391 158.7H384.391V157.673L383.365 157.7L383.391 158.7ZM383.691 196.8L383.673 197.8L384.705 197.819L384.691 196.786L383.691 196.8ZM345.591 196.5V195.5H344.569L344.592 196.522L345.591 196.5ZM346.791 240.3L345.792 240.338L345.827 241.236L346.723 241.298L346.791 240.3ZM390.291 242.1L391.29 242.146L391.338 241.124L390.314 241.1L390.291 242.1ZM389.691 279.9L389.66 280.9L390.691 280.932V279.9H389.691ZM350.712 58.0156C344.244 52.902 339.426 49.438 336.218 47.249C334.614 46.1544 333.412 45.3786 332.609 44.8747C332.207 44.6228 331.905 44.4388 331.701 44.3169C331.6 44.2559 331.523 44.2105 331.471 44.1799C331.444 44.1646 331.424 44.153 331.411 44.145C331.404 44.141 331.398 44.1379 331.394 44.1357C331.393 44.1346 331.391 44.1337 331.39 44.1331C331.389 44.1327 331.389 44.1325 331.388 44.1322C331.388 44.1321 331.388 44.132 331.388 44.132C331.388 44.1318 331.388 44.1317 330.891 45C330.395 45.8682 330.395 45.8682 330.395 45.8681C330.395 45.8681 330.395 45.8681 330.395 45.8681C330.395 45.8681 330.395 45.8681 330.395 45.8682C330.396 45.8685 330.396 45.8689 330.398 45.8696C330.4 45.8709 330.404 45.8731 330.409 45.8762C330.42 45.8825 330.437 45.8923 330.46 45.9059C330.506 45.933 330.577 45.9749 330.673 46.0323C330.865 46.1472 331.156 46.3241 331.546 46.569C332.327 47.0588 333.507 47.8205 335.09 48.901C338.257 51.062 343.038 54.498 349.471 59.5844L350.712 58.0156ZM331.723 45.5547C341.329 31.1467 348.534 19.8889 353.338 12.2315C355.741 8.40274 357.543 5.47406 358.745 3.50169C359.346 2.51551 359.797 1.76841 360.099 1.26741C360.249 1.01691 360.362 0.827943 360.438 0.701379C360.475 0.638096 360.504 0.590416 360.523 0.558446C360.532 0.542462 360.539 0.530405 360.544 0.52229C360.547 0.518232 360.549 0.51516 360.55 0.513075C360.55 0.512032 360.551 0.511236 360.551 0.510687C360.551 0.510413 360.551 0.510187 360.552 0.51005C360.552 0.509885 360.552 0.509782 359.691 -2.00272e-05C358.831 -0.509822 358.831 -0.509801 358.831 -0.509719C358.831 -0.509609 358.831 -0.509465 358.831 -0.509245C358.831 -0.508805 358.83 -0.508119 358.83 -0.507185C358.828 -0.505319 358.827 -0.502465 358.824 -0.498627C358.82 -0.490949 358.813 -0.47933 358.804 -0.463784C358.785 -0.432692 358.757 -0.38589 358.72 -0.323489C358.646 -0.198686 358.534 -0.0114845 358.384 0.237237C358.085 0.734679 357.636 1.4782 357.038 2.46077C355.84 4.42591 354.042 7.34723 351.644 11.1685C346.849 18.811 339.654 30.0533 330.059 44.4453L331.723 45.5547ZM359.078 0.790065C367.786 7.54577 373.944 12.1272 377.929 15.0216C379.921 16.4688 381.37 17.4943 382.322 18.159C382.798 18.4914 383.15 18.7336 383.384 18.8932C383.501 18.9731 383.588 19.0322 383.647 19.0717C383.676 19.0915 383.698 19.1063 383.713 19.1163C383.721 19.1213 383.726 19.1251 383.73 19.1277C383.732 19.129 383.734 19.13 383.735 19.1308C383.735 19.1311 383.736 19.1314 383.736 19.1316C383.736 19.1317 383.736 19.1318 383.736 19.1319C383.737 19.132 383.737 19.132 384.291 18.3C384.846 17.4679 384.846 17.468 384.846 17.468C384.846 17.468 384.846 17.468 384.846 17.4679C384.846 17.4678 384.846 17.4677 384.845 17.4675C384.845 17.467 384.844 17.4663 384.842 17.4652C384.839 17.4631 384.834 17.4598 384.827 17.4553C384.814 17.4464 384.793 17.4326 384.766 17.4139C384.71 17.3764 384.626 17.3193 384.512 17.2415C384.284 17.0859 383.938 16.8476 383.467 16.5191C382.525 15.8619 381.087 14.8437 379.104 13.4034C375.139 10.5228 368.997 5.95419 360.304 -0.790105L359.078 0.790065ZM383.539 17.6415C370.934 32.0475 362.378 42.1795 356.971 48.7124C354.268 51.9789 352.352 54.3457 351.111 55.8972C350.49 56.6729 350.038 57.2448 349.741 57.6235C349.592 57.8128 349.482 57.9539 349.409 58.0479C349.373 58.0949 349.345 58.1302 349.327 58.1538C349.318 58.1657 349.311 58.1746 349.306 58.1807C349.304 58.1837 349.302 58.186 349.301 58.1876C349.3 58.1884 349.3 58.1891 349.299 58.1895C349.299 58.1897 349.299 58.1899 349.299 58.19C349.299 58.1902 349.299 58.1903 350.091 58.8C350.884 59.4097 350.884 59.4097 350.884 59.4097C350.884 59.4096 350.884 59.4096 350.884 59.4094C350.884 59.4091 350.885 59.4087 350.885 59.4081C350.886 59.4068 350.888 59.4048 350.89 59.4021C350.894 59.3967 350.9 59.3884 350.909 59.3773C350.926 59.3549 350.953 59.321 350.988 59.2752C351.059 59.1838 351.167 59.0453 351.314 58.8585C351.607 58.4848 352.055 57.9177 352.672 57.1466C353.906 55.6043 355.815 53.2461 358.512 49.9876C363.905 43.4704 372.449 33.3525 385.044 18.9585L383.539 17.6415ZM306.591 278.1C307.591 278.093 307.591 278.093 307.591 278.092C307.591 278.091 307.591 278.09 307.591 278.089C307.591 278.086 307.591 278.082 307.591 278.077C307.591 278.067 307.591 278.051 307.591 278.03C307.591 277.988 307.59 277.925 307.59 277.841C307.588 277.674 307.587 277.424 307.584 277.093C307.579 276.43 307.572 275.443 307.562 274.144C307.542 271.545 307.512 267.697 307.469 262.702C307.385 252.713 307.254 238.134 307.066 219.777C306.691 183.064 306.091 131.237 305.191 70.7851L303.192 70.8149C304.091 131.263 304.691 183.086 305.066 219.798C305.254 238.153 305.385 252.731 305.47 262.719C305.512 267.714 305.542 271.561 305.562 274.159C305.572 275.458 305.579 276.445 305.584 277.107C305.587 277.439 305.588 277.688 305.59 277.856C305.59 277.939 305.591 278.002 305.591 278.044C305.591 278.065 305.591 278.081 305.591 278.091C305.591 278.096 305.591 278.1 305.591 278.103C305.591 278.104 305.591 278.105 305.591 278.106C305.591 278.107 305.591 278.107 306.591 278.1ZM304.191 70.8C304.204 71.7999 304.204 71.7999 304.204 71.7999C304.204 71.7999 304.205 71.7999 304.205 71.7999C304.206 71.7999 304.207 71.7999 304.208 71.7999C304.211 71.7998 304.216 71.7998 304.222 71.7997C304.234 71.7996 304.251 71.7993 304.275 71.799C304.323 71.7984 304.395 71.7975 304.492 71.7963C304.684 71.7939 304.975 71.7902 305.367 71.7853C306.15 71.7753 307.336 71.7601 308.948 71.739C312.173 71.6968 317.105 71.6312 323.93 71.5374C337.581 71.3499 358.806 71.0499 389.106 70.5999L389.077 68.6001C358.777 69.0501 337.552 69.3501 323.903 69.5376C317.078 69.6313 312.147 69.697 308.922 69.7391C307.31 69.7602 306.124 69.7755 305.341 69.7854C304.95 69.7904 304.659 69.7941 304.467 69.7965C304.37 69.7977 304.298 69.7986 304.251 69.7992C304.227 69.7995 304.209 69.7997 304.197 69.7999C304.191 69.7999 304.186 69.8 304.183 69.8C304.182 69.8 304.181 69.8001 304.18 69.8001C304.18 69.8001 304.18 69.8001 304.179 69.8001C304.179 69.8001 304.179 69.8001 304.191 70.8ZM389.091 69.6C388.092 69.5818 388.092 69.5819 388.092 69.5821C388.092 69.5822 388.092 69.5824 388.092 69.5827C388.092 69.5832 388.092 69.584 388.092 69.5851C388.091 69.5872 388.091 69.5903 388.091 69.5944C388.091 69.6025 388.091 69.6147 388.091 69.6308C388.09 69.6631 388.089 69.7112 388.088 69.7748C388.086 69.902 388.083 70.0914 388.08 70.3405C388.073 70.8388 388.063 71.5762 388.054 72.5339C388.035 74.4494 388.016 77.2465 388.016 80.775C388.016 87.8319 388.091 97.8156 388.392 109.526L390.391 109.474C390.091 97.7844 390.016 87.8181 390.016 80.775C390.016 77.2535 390.035 74.4631 390.054 72.5535C390.063 71.5988 390.073 70.8643 390.08 70.3688C390.083 70.1211 390.086 69.9331 390.088 69.8072C390.089 69.7443 390.09 69.6968 390.09 69.6652C390.091 69.6494 390.091 69.6376 390.091 69.6297C390.091 69.6258 390.091 69.6229 390.091 69.6209C390.091 69.62 390.091 69.6193 390.091 69.6188C390.091 69.6186 390.091 69.6184 390.091 69.6183C390.091 69.6182 390.091 69.6182 389.091 69.6ZM389.391 109.5C389.379 108.5 389.379 108.5 389.379 108.5C389.379 108.5 389.378 108.5 389.378 108.5C389.377 108.5 389.376 108.5 389.375 108.5C389.372 108.5 389.367 108.5 389.361 108.5C389.349 108.5 389.331 108.501 389.308 108.501C389.261 108.502 389.19 108.502 389.098 108.504C388.912 108.506 388.638 108.509 388.282 108.514C387.57 108.524 386.53 108.538 385.219 108.556C382.598 108.594 378.894 108.65 374.562 108.725C365.897 108.875 354.718 109.1 344.662 109.4L344.721 111.4C354.765 111.1 365.935 110.875 374.596 110.725C378.926 110.65 382.628 110.594 385.248 110.556C386.558 110.537 387.597 110.523 388.308 110.514C388.664 110.509 388.938 110.506 389.123 110.503C389.215 110.502 389.286 110.501 389.333 110.501C389.356 110.501 389.374 110.5 389.386 110.5C389.392 110.5 389.396 110.5 389.399 110.5C389.401 110.5 389.402 110.5 389.403 110.5C389.403 110.5 389.403 110.5 389.403 110.5C389.404 110.5 389.404 110.5 389.391 109.5ZM344.691 110.4C343.692 110.384 343.692 110.384 343.692 110.384C343.692 110.384 343.692 110.384 343.692 110.385C343.692 110.385 343.692 110.386 343.691 110.387C343.691 110.389 343.691 110.393 343.691 110.397C343.691 110.407 343.691 110.42 343.691 110.438C343.69 110.474 343.689 110.527 343.688 110.598C343.686 110.74 343.683 110.952 343.68 111.233C343.673 111.794 343.663 112.628 343.654 113.724C343.635 115.916 343.616 119.153 343.616 123.337C343.616 131.706 343.691 143.863 343.992 159.02L345.991 158.98C345.691 143.837 345.616 131.694 345.616 123.337C345.616 119.159 345.635 115.928 345.654 113.741C345.663 112.648 345.673 111.816 345.68 111.258C345.683 110.979 345.686 110.768 345.688 110.627C345.689 110.557 345.69 110.504 345.69 110.469C345.691 110.451 345.691 110.438 345.691 110.429C345.691 110.425 345.691 110.422 345.691 110.419C345.691 110.418 345.691 110.418 345.691 110.417C345.691 110.417 345.691 110.417 345.691 110.417C345.691 110.416 345.691 110.416 344.691 110.4ZM344.991 160C347.374 160 360.6 160.3 383.418 159.7L383.365 157.7C360.583 158.3 347.409 158 344.991 158V160ZM383.391 158.7C382.391 158.7 382.391 158.7 382.391 158.7C382.391 158.7 382.391 158.701 382.391 158.701C382.391 158.701 382.391 158.702 382.391 158.703C382.391 158.705 382.391 158.708 382.391 158.712C382.391 158.72 382.391 158.731 382.391 158.747C382.391 158.777 382.391 158.824 382.391 158.885C382.392 159.007 382.392 159.189 382.392 159.428C382.393 159.906 382.394 160.615 382.396 161.534C382.401 163.372 382.41 166.054 382.429 169.431C382.466 176.183 382.541 185.71 382.692 196.814L384.691 196.786C384.541 185.69 384.466 176.167 384.429 169.419C384.41 166.046 384.401 163.365 384.396 161.529C384.394 160.61 384.393 159.903 384.392 159.425C384.392 159.186 384.392 159.005 384.391 158.883C384.391 158.823 384.391 158.777 384.391 158.746C384.391 158.731 384.391 158.719 384.391 158.711C384.391 158.708 384.391 158.705 384.391 158.703C384.391 158.702 384.391 158.701 384.391 158.701C384.391 158.7 384.391 158.7 384.391 158.7C384.391 158.7 384.391 158.7 383.391 158.7ZM383.691 196.8C383.71 195.8 383.71 195.8 383.709 195.8C383.709 195.8 383.709 195.8 383.709 195.8C383.708 195.8 383.708 195.8 383.706 195.8C383.704 195.8 383.701 195.8 383.697 195.8C383.689 195.8 383.677 195.8 383.661 195.799C383.629 195.799 383.581 195.798 383.518 195.797C383.392 195.795 383.204 195.791 382.957 195.787C382.463 195.779 381.733 195.767 380.791 195.753C378.905 195.725 376.166 195.688 372.752 195.65C365.925 195.575 356.396 195.5 345.591 195.5V197.5C356.387 197.5 365.908 197.575 372.73 197.65C376.141 197.687 378.878 197.725 380.761 197.753C381.702 197.767 382.431 197.779 382.924 197.787C383.17 197.791 383.358 197.794 383.483 197.796C383.546 197.798 383.594 197.798 383.626 197.799C383.641 197.799 383.653 197.799 383.661 197.8C383.665 197.8 383.668 197.8 383.67 197.8C383.671 197.8 383.672 197.8 383.673 197.8C383.673 197.8 383.673 197.8 383.673 197.8C383.673 197.8 383.673 197.8 383.691 196.8ZM344.592 196.522C344.892 210.02 345.192 224.729 345.792 240.338L347.791 240.262C347.191 224.671 346.891 209.98 346.591 196.478L344.592 196.522ZM346.791 240.3C346.723 241.298 346.723 241.298 346.723 241.298C346.723 241.298 346.723 241.298 346.724 241.298C346.724 241.298 346.725 241.298 346.726 241.298C346.728 241.298 346.732 241.298 346.736 241.299C346.744 241.299 346.757 241.3 346.774 241.301C346.808 241.303 346.859 241.307 346.927 241.311C347.061 241.32 347.262 241.334 347.526 241.351C348.054 241.385 348.837 241.434 349.858 241.495C351.901 241.617 354.895 241.786 358.705 241.974C366.325 242.349 377.208 242.8 390.268 243.1L390.314 241.1C377.274 240.8 366.408 240.351 358.803 239.976C355.001 239.789 352.013 239.62 349.978 239.499C348.96 239.438 348.18 239.389 347.654 239.355C347.392 239.338 347.193 239.325 347.06 239.316C346.993 239.311 346.943 239.308 346.91 239.306C346.893 239.305 346.881 239.304 346.872 239.303C346.868 239.303 346.865 239.303 346.863 239.303C346.862 239.302 346.861 239.302 346.861 239.302C346.861 239.302 346.86 239.302 346.86 239.302C346.86 239.302 346.86 239.302 346.791 240.3ZM390.291 242.1C389.292 242.054 389.292 242.054 389.292 242.054C389.292 242.054 389.292 242.054 389.292 242.054C389.292 242.055 389.292 242.055 389.292 242.056C389.292 242.058 389.292 242.06 389.292 242.064C389.292 242.07 389.291 242.08 389.291 242.093C389.29 242.118 389.288 242.157 389.286 242.207C389.281 242.309 389.275 242.46 389.266 242.662C389.25 243.065 389.226 243.668 389.198 244.47C389.142 246.072 389.067 248.466 388.992 251.639C388.842 257.984 388.691 267.442 388.691 279.9H390.691C390.691 267.458 390.841 258.016 390.991 251.686C391.066 248.521 391.141 246.134 391.197 244.54C391.225 243.743 391.248 243.143 391.265 242.744C391.273 242.544 391.279 242.394 391.284 242.295C391.286 242.245 391.288 242.208 391.289 242.183C391.289 242.17 391.29 242.161 391.29 242.155C391.29 242.152 391.29 242.15 391.29 242.148C391.29 242.148 391.29 242.147 391.29 242.147C391.29 242.147 391.29 242.147 391.29 242.147C391.29 242.146 391.29 242.146 390.291 242.1ZM389.691 279.9C389.723 278.9 389.723 278.9 389.722 278.9C389.722 278.9 389.722 278.9 389.721 278.9C389.72 278.9 389.718 278.9 389.716 278.9C389.711 278.9 389.704 278.9 389.695 278.9C389.676 278.899 389.649 278.898 389.612 278.897C389.538 278.895 389.428 278.891 389.283 278.887C388.993 278.878 388.562 278.865 387.996 278.848C386.866 278.814 385.202 278.764 383.064 278.704C378.788 278.582 372.618 278.413 365.041 278.225C349.889 277.85 329.11 277.4 306.605 277.1L306.578 279.1C329.073 279.4 349.844 279.85 364.992 280.225C372.565 280.412 378.733 280.581 383.007 280.703C385.144 280.764 386.807 280.813 387.936 280.847C388.501 280.864 388.932 280.877 389.222 280.886C389.367 280.89 389.476 280.894 389.55 280.896C389.586 280.897 389.614 280.898 389.632 280.899C389.642 280.899 389.648 280.899 389.653 280.899C389.655 280.899 389.657 280.899 389.658 280.899C389.659 280.899 389.659 280.899 389.66 280.899C389.66 280.9 389.66 280.9 389.691 279.9ZM473.457 249.6L472.457 249.62L472.476 250.526L473.379 250.597L473.457 249.6ZM471.657 103.2L471.511 102.211L470.653 102.337L470.657 103.204L471.657 103.2ZM431.457 280.2L430.457 280.194L430.452 281.054L431.301 281.188L431.457 280.2ZM431.457 71.1L431.276 70.1165L430.452 70.2683L430.457 71.1059L431.457 71.1ZM473.379 250.597C477.271 250.902 480.926 250.691 484.169 249.011C487.434 247.32 490.127 244.222 492.268 239.071C496.517 228.85 498.757 210.132 498.757 176.7H496.757C496.757 210.168 494.497 228.5 490.421 238.304C488.4 243.165 485.974 245.824 483.249 247.235C480.5 248.659 477.293 248.898 473.535 248.603L473.379 250.597ZM498.757 176.7C498.757 148.647 496.813 129.44 492.51 117.559C490.354 111.607 487.57 107.388 484.04 104.845C480.482 102.281 476.287 101.506 471.511 102.211L471.803 104.189C476.177 103.544 479.819 104.269 482.871 106.468C485.951 108.687 488.548 112.493 490.629 118.241C494.802 129.76 496.757 148.653 496.757 176.7H498.757ZM470.657 103.204C470.807 139.359 471.257 175.963 471.67 203.527C471.876 217.31 472.073 228.833 472.218 236.91C472.291 240.949 472.351 244.126 472.392 246.294C472.413 247.378 472.429 248.209 472.44 248.77C472.446 249.05 472.45 249.263 472.453 249.405C472.454 249.476 472.455 249.53 472.456 249.566C472.457 249.584 472.457 249.598 472.457 249.607C472.457 249.611 472.457 249.615 472.457 249.617C472.457 249.618 472.457 249.619 472.457 249.619C472.457 249.62 472.457 249.62 473.457 249.6C474.457 249.58 474.457 249.579 474.457 249.579C474.457 249.578 474.457 249.578 474.457 249.576C474.457 249.574 474.457 249.571 474.457 249.566C474.456 249.557 474.456 249.544 474.456 249.526C474.455 249.49 474.454 249.436 474.453 249.365C474.45 249.223 474.445 249.011 474.44 248.73C474.429 248.17 474.413 247.339 474.392 246.256C474.35 244.089 474.29 240.912 474.218 236.874C474.073 228.798 473.876 217.278 473.669 203.498C473.257 175.937 472.807 139.341 472.657 103.196L470.657 103.204ZM432.457 280.206C432.757 226.802 432.757 174.525 432.682 135.598C432.645 116.135 432.588 100.009 432.541 88.749C432.518 83.1189 432.497 78.7054 432.482 75.6992C432.474 74.1962 432.468 73.0449 432.464 72.2695C432.461 71.8817 432.46 71.5879 432.459 71.391C432.458 71.2926 432.458 71.2184 432.457 71.1688C432.457 71.144 432.457 71.1253 432.457 71.1129C432.457 71.1066 432.457 71.102 432.457 71.0988C432.457 71.0973 432.457 71.0961 432.457 71.0953C432.457 71.0945 432.457 71.0941 431.457 71.1C430.457 71.1059 430.457 71.1062 430.457 71.107C430.457 71.1078 430.457 71.109 430.457 71.1105C430.457 71.1136 430.457 71.1183 430.457 71.1245C430.457 71.1369 430.457 71.1555 430.457 71.1803C430.458 71.2299 430.458 71.304 430.459 71.4024C430.46 71.5991 430.462 71.8928 430.464 72.2804C430.468 73.0556 430.474 74.2066 430.482 75.7094C430.497 78.7149 430.518 83.1279 430.541 88.7573C430.588 100.016 430.645 116.14 430.682 135.602C430.757 174.525 430.757 226.798 430.457 280.194L432.457 280.206ZM431.638 72.0834C442.983 69.9936 453.122 69.1 462.357 69.1V67.1C452.992 67.1 442.731 68.0064 431.276 70.1165L431.638 72.0834ZM462.357 69.1C491.087 69.1 510.524 77.7921 522.845 95.741C535.229 113.781 540.557 141.347 540.557 179.4H542.557C542.557 141.253 537.235 113.169 524.494 94.609C511.69 75.9579 491.527 67.1 462.357 67.1V69.1ZM540.557 179.4C540.557 217.576 533.962 243.168 521.09 259.212C508.262 275.2 489.037 281.9 463.257 281.9V283.9C489.377 283.9 509.302 277.1 522.65 260.463C535.952 243.882 542.557 217.724 542.557 179.4H540.557ZM463.257 281.9C453.717 281.9 442.97 281.005 431.613 279.212L431.301 281.188C442.744 282.995 453.597 283.9 463.257 283.9V281.9ZM587.518 279.3L586.518 279.297L586.515 280.311L587.529 280.3L587.518 279.3ZM586.318 70.8V69.8H585.305L585.318 70.8129L586.318 70.8ZM627.118 70.5L628.118 70.494L628.112 69.4888L627.107 69.5L627.118 70.5ZM628.618 279.3L628.597 280.3L629.626 280.321L629.618 279.292L628.618 279.3ZM587.518 279.3C588.518 279.303 588.518 279.303 588.518 279.302C588.518 279.301 588.518 279.3 588.518 279.299C588.518 279.296 588.518 279.292 588.518 279.286C588.518 279.275 588.518 279.258 588.518 279.236C588.518 279.192 588.519 279.125 588.519 279.036C588.519 278.859 588.52 278.594 588.521 278.243C588.523 277.542 588.525 276.499 588.528 275.129C588.533 272.391 588.539 268.349 588.541 263.133C588.546 252.703 588.537 237.58 588.48 218.81C588.368 181.27 588.068 129.141 587.318 70.7871L585.318 70.8129C586.068 129.159 586.368 181.28 586.48 218.815C586.537 237.583 586.546 252.704 586.541 263.132C586.539 268.347 586.533 272.388 586.528 275.126C586.525 276.494 586.523 277.537 586.521 278.238C586.52 278.588 586.519 278.853 586.519 279.03C586.519 279.119 586.518 279.185 586.518 279.23C586.518 279.252 586.518 279.269 586.518 279.28C586.518 279.286 586.518 279.29 586.518 279.293C586.518 279.294 586.518 279.295 586.518 279.296C586.518 279.296 586.518 279.297 587.518 279.3ZM586.318 70.8C586.318 71.8 586.318 71.8 586.318 71.8C586.318 71.8 586.318 71.8 586.319 71.8C586.319 71.8 586.32 71.8 586.321 71.8C586.322 71.8 586.325 71.8 586.328 71.8C586.335 71.8 586.346 71.8 586.36 71.8C586.387 71.8 586.428 71.8 586.484 71.7999C586.594 71.7999 586.758 71.7997 586.977 71.7994C587.415 71.7988 588.071 71.7977 588.941 71.7953C590.681 71.7906 593.279 71.7812 596.711 71.7625C603.575 71.725 613.777 71.65 627.129 71.4999L627.107 69.5C613.759 69.65 603.561 69.725 596.7 69.7625C593.27 69.7813 590.674 69.7906 588.936 69.7953C588.067 69.7977 587.412 69.7988 586.975 69.7994C586.756 69.7997 586.592 69.7999 586.482 69.7999C586.427 69.8 586.386 69.8 586.359 69.8C586.345 69.8 586.335 69.8 586.328 69.8C586.325 69.8 586.322 69.8 586.32 69.8C586.32 69.8 586.319 69.8 586.319 69.8C586.318 69.8 586.318 69.8 586.318 69.8C586.318 69.8 586.318 69.8 586.318 70.8ZM627.118 70.5C626.118 70.506 626.118 70.5063 626.118 70.5071C626.118 70.5079 626.118 70.509 626.118 70.5106C626.118 70.5136 626.118 70.5182 626.118 70.5243C626.118 70.5365 626.118 70.5549 626.118 70.5792C626.119 70.628 626.119 70.7009 626.12 70.7976C626.121 70.9911 626.123 71.2799 626.125 71.6611C626.13 72.4237 626.136 73.5562 626.146 75.036C626.164 77.9956 626.191 82.3445 626.226 87.9016C626.296 99.0158 626.399 114.963 626.53 134.294C626.793 172.957 627.168 225.158 627.618 279.308L629.618 279.292C629.168 225.142 628.793 172.943 628.53 134.281C628.399 114.95 628.296 99.0029 628.226 87.889C628.191 82.332 628.164 77.9832 628.145 75.0237C628.136 73.544 628.13 72.4115 628.125 71.649C628.123 71.2678 628.121 70.979 628.12 70.7856C628.119 70.6889 628.119 70.616 628.118 70.5672C628.118 70.5429 628.118 70.5246 628.118 70.5124C628.118 70.5063 628.118 70.5017 628.118 70.4986C628.118 70.4971 628.118 70.4959 628.118 70.4952C628.118 70.4944 628.118 70.494 627.118 70.5ZM628.618 279.3C628.639 278.3 628.639 278.3 628.639 278.3C628.638 278.3 628.638 278.3 628.638 278.3C628.638 278.3 628.637 278.3 628.636 278.3C628.634 278.3 628.631 278.3 628.628 278.3C628.621 278.3 628.61 278.3 628.596 278.299C628.567 278.299 628.525 278.298 628.469 278.297C628.356 278.295 628.188 278.292 627.964 278.288C627.517 278.28 626.849 278.27 625.964 278.258C624.194 278.234 621.557 278.206 618.086 278.188C611.143 278.15 600.862 278.15 587.507 278.3L587.529 280.3C600.873 280.15 611.143 280.15 618.075 280.187C621.541 280.206 624.173 280.234 625.938 280.258C626.82 280.269 627.485 280.28 627.93 280.288C628.152 280.291 628.319 280.294 628.431 280.297C628.486 280.298 628.528 280.298 628.556 280.299C628.57 280.299 628.58 280.299 628.587 280.3C628.591 280.3 628.593 280.3 628.595 280.3C628.596 280.3 628.596 280.3 628.597 280.3C628.597 280.3 628.597 280.3 628.597 280.3C628.597 280.3 628.597 280.3 628.618 279.3ZM670.327 109.5L669.328 109.472L669.299 110.51L670.337 110.5L670.327 109.5ZM670.027 70.5L670.037 69.5L669.006 69.4902L669.028 70.5213L670.027 70.5ZM772.627 69.6L773.625 69.6611L773.692 68.5819L772.61 68.6001L772.627 69.6ZM772.027 109.5L772.003 110.5L773.04 110.525L773.027 109.488L772.027 109.5ZM741.427 109.2V108.2H740.427V109.2H741.427ZM742.627 280.2L742.606 281.2L743.641 281.222L743.627 280.187L742.627 280.2ZM701.827 280.5L700.827 280.496L700.823 281.523L701.85 281.5L701.827 280.5ZM701.227 109.2L702.227 109.191L702.219 108.19L701.218 108.2L701.227 109.2ZM670.327 109.5C671.327 109.528 671.327 109.528 671.327 109.528C671.327 109.527 671.327 109.527 671.327 109.527C671.327 109.527 671.327 109.526 671.327 109.525C671.327 109.524 671.327 109.522 671.327 109.519C671.327 109.513 671.328 109.505 671.328 109.494C671.328 109.472 671.329 109.439 671.33 109.396C671.332 109.308 671.335 109.177 671.339 109.001C671.346 108.648 671.355 108.114 671.365 107.385C671.384 105.927 671.402 103.691 671.402 100.575C671.402 94.342 671.327 84.5849 671.027 70.4787L669.028 70.5213C669.327 84.6151 669.402 94.3579 669.402 100.575C669.402 103.683 669.384 105.91 669.365 107.359C669.356 108.083 669.346 108.613 669.339 108.961C669.336 109.135 669.333 109.263 669.331 109.348C669.33 109.39 669.329 109.422 669.329 109.442C669.328 109.453 669.328 109.46 669.328 109.465C669.328 109.468 669.328 109.47 669.328 109.471C669.328 109.471 669.328 109.472 669.328 109.472C669.328 109.472 669.328 109.472 669.328 109.472C669.328 109.472 669.328 109.472 670.327 109.5ZM670.027 70.5C670.018 71.4999 670.018 71.4999 670.018 71.4999C670.018 71.4999 670.019 71.4999 670.019 71.5C670.02 71.5 670.022 71.5 670.024 71.5C670.028 71.5 670.034 71.5001 670.041 71.5002C670.057 71.5003 670.08 71.5005 670.111 71.5008C670.173 71.5013 670.266 71.5021 670.391 71.503C670.639 71.5049 671.013 71.5076 671.514 71.5105C672.515 71.5164 674.025 71.5234 676.058 71.5281C680.124 71.5375 686.286 71.5375 694.669 71.5C711.436 71.425 737.09 71.1999 772.644 70.5999L772.61 68.6001C737.064 69.2001 711.418 69.425 694.66 69.5C686.281 69.5375 680.124 69.5375 676.062 69.5281C674.032 69.5234 672.525 69.5164 671.526 69.5105C671.026 69.5076 670.654 69.505 670.406 69.5031C670.282 69.5021 670.19 69.5014 670.128 69.5008C670.098 69.5006 670.075 69.5004 670.06 69.5002C670.052 69.5002 670.046 69.5001 670.042 69.5001C670.041 69.5001 670.039 69.5001 670.038 69.5C670.038 69.5 670.037 69.5 670.037 69.5C670.037 69.5 670.037 69.5 670.027 70.5ZM772.627 69.6C771.629 69.5389 771.629 69.539 771.629 69.5392C771.629 69.5393 771.629 69.5395 771.629 69.5398C771.629 69.5403 771.629 69.5411 771.629 69.5421C771.629 69.544 771.629 69.5469 771.629 69.5506C771.628 69.5581 771.627 69.5692 771.627 69.5838C771.625 69.613 771.622 69.6565 771.619 69.7141C771.612 69.8292 771.603 70.0007 771.591 70.2277C771.567 70.6816 771.532 71.357 771.492 72.2457C771.412 74.0232 771.309 76.654 771.215 80.0725C771.027 86.9096 770.877 96.8977 771.027 109.512L773.027 109.488C772.877 96.9022 773.027 86.9404 773.214 80.1275C773.308 76.721 773.411 74.1018 773.49 72.3355C773.53 71.4524 773.564 70.7825 773.588 70.334C773.6 70.1098 773.609 69.9409 773.616 69.8284C773.619 69.7722 773.621 69.73 773.623 69.7021C773.624 69.6881 773.624 69.6777 773.625 69.6709C773.625 69.6675 773.625 69.6649 773.625 69.6633C773.625 69.6625 773.625 69.6619 773.625 69.6615C773.625 69.6614 773.625 69.6612 773.625 69.6612C773.625 69.6611 773.625 69.6611 772.627 69.6ZM772.027 109.5C772.052 108.5 772.052 108.5 772.052 108.5C772.051 108.5 772.051 108.5 772.051 108.5C772.051 108.5 772.05 108.5 772.049 108.5C772.048 108.5 772.046 108.5 772.042 108.5C772.036 108.5 772.027 108.5 772.015 108.499C771.991 108.499 771.955 108.498 771.908 108.497C771.813 108.495 771.672 108.491 771.485 108.487C771.112 108.479 770.559 108.467 769.839 108.453C768.398 108.425 766.287 108.388 763.604 108.35C758.237 108.275 750.583 108.2 741.427 108.2V110.2C750.572 110.2 758.217 110.275 763.576 110.35C766.255 110.387 768.363 110.425 769.8 110.453C770.519 110.467 771.07 110.479 771.441 110.487C771.627 110.491 771.767 110.494 771.862 110.496C771.909 110.497 771.944 110.498 771.968 110.499C771.98 110.499 771.988 110.499 771.994 110.499C771.997 110.5 771.999 110.5 772.001 110.5C772.002 110.5 772.002 110.5 772.002 110.5C772.003 110.5 772.003 110.5 772.003 110.5C772.003 110.5 772.003 110.5 772.027 109.5ZM740.427 109.2C740.427 138.903 740.427 189.607 741.627 280.213L743.627 280.187C742.427 189.593 742.427 138.897 742.427 109.2H740.427ZM742.627 280.2C742.649 279.2 742.649 279.2 742.649 279.2C742.649 279.2 742.649 279.2 742.648 279.2C742.648 279.2 742.647 279.2 742.646 279.2C742.644 279.2 742.642 279.2 742.638 279.2C742.631 279.2 742.621 279.2 742.607 279.199C742.58 279.199 742.539 279.198 742.485 279.197C742.376 279.195 742.214 279.192 741.998 279.188C741.566 279.181 740.92 279.172 740.06 279.163C738.341 279.144 735.769 279.125 732.352 279.125C725.52 279.125 715.313 279.2 701.805 279.5L701.85 281.5C715.342 281.2 725.535 281.125 732.352 281.125C735.761 281.125 738.326 281.144 740.038 281.162C740.894 281.172 741.537 281.181 741.965 281.188C742.179 281.192 742.34 281.195 742.447 281.197C742.5 281.198 742.54 281.198 742.567 281.199C742.58 281.199 742.59 281.199 742.596 281.2C742.599 281.2 742.602 281.2 742.603 281.2C742.604 281.2 742.605 281.2 742.605 281.2C742.605 281.2 742.605 281.2 742.606 281.2C742.606 281.2 742.606 281.2 742.627 280.2ZM701.827 280.5C702.827 280.504 702.827 280.504 702.827 280.504C702.827 280.503 702.827 280.502 702.827 280.501C702.827 280.499 702.827 280.496 702.827 280.492C702.827 280.484 702.827 280.472 702.828 280.455C702.828 280.422 702.828 280.373 702.828 280.308C702.829 280.178 702.829 279.983 702.83 279.724C702.832 279.206 702.835 278.433 702.838 277.412C702.845 275.371 702.853 272.339 702.86 268.375C702.874 260.448 702.884 248.794 702.865 233.886C702.827 204.072 702.677 161.244 702.227 109.191L700.227 109.209C700.677 161.256 700.827 204.078 700.865 233.889C700.884 248.794 700.874 260.446 700.86 268.372C700.853 272.334 700.845 275.366 700.838 277.406C700.835 278.426 700.832 279.199 700.831 279.716C700.83 279.975 700.829 280.17 700.828 280.3C700.828 280.365 700.828 280.414 700.828 280.447C700.827 280.463 700.827 280.475 700.827 280.483C700.827 280.487 700.827 280.49 700.827 280.493C700.827 280.494 700.827 280.494 700.827 280.495C700.827 280.495 700.827 280.496 701.827 280.5ZM701.218 108.2L670.318 108.5L670.337 110.5L701.237 110.2L701.218 108.2ZM804.402 174.9L803.402 174.9L803.402 174.904L804.402 174.9ZM920.502 174.6L921.502 174.607V174.6H920.502ZM862.302 282.8C851.647 282.8 842.838 280.526 835.597 276.058C828.357 271.591 822.613 264.886 818.16 255.906C809.231 237.9 805.551 210.874 805.402 174.896L803.402 174.904C803.552 210.926 807.222 238.35 816.368 256.794C820.953 266.039 826.927 273.059 834.547 277.76C842.165 282.461 851.357 284.8 862.302 284.8V282.8ZM805.402 174.9C805.402 144.776 808.255 117.879 816.828 98.5428C821.108 88.891 826.793 81.1678 834.219 75.8555C841.637 70.5495 850.858 67.6 862.302 67.6V65.6C850.495 65.6 840.854 68.6505 833.056 74.2289C825.266 79.8009 819.383 87.8465 815 97.7322C806.248 117.471 803.402 144.724 803.402 174.9H805.402ZM862.302 67.6C873.915 67.6 883.238 70.3161 890.709 75.3199C898.184 80.3262 903.88 87.6722 908.154 97.0521C916.721 115.854 919.502 142.665 919.502 174.6H921.502C921.502 142.635 918.732 115.446 909.974 96.2229C905.585 86.5903 899.675 78.9175 891.822 73.6582C883.965 68.3964 874.238 65.6 862.302 65.6V67.6ZM919.502 174.593C919.202 216.119 914.397 243.195 904.932 259.869C900.216 268.178 894.35 273.89 887.304 277.535C880.249 281.187 871.943 282.8 862.302 282.8V284.8C872.16 284.8 880.804 283.151 888.224 279.312C895.653 275.467 901.788 269.46 906.671 260.856C916.406 243.705 921.201 216.181 921.502 174.607L919.502 174.593ZM862.902 253C865.471 253 867.722 252.004 869.57 249.456C871.362 246.986 872.764 243.076 873.859 237.26C876.054 225.606 877.102 205.793 877.102 173.1H875.102C875.102 205.807 874.049 225.444 871.894 236.89C870.814 242.624 869.478 246.177 867.951 248.282C866.481 250.309 864.832 251 862.902 251V253ZM877.102 173.1C877.102 144.452 876.054 125.912 873.782 114.517C872.648 108.827 871.189 104.808 869.322 102.192C867.411 99.5166 865.059 98.3 862.302 98.3V100.3C864.344 100.3 866.117 101.146 867.694 103.355C869.314 105.623 870.705 109.31 871.821 114.908C874.049 126.088 875.102 144.448 875.102 173.1H877.102ZM862.302 98.3C859.286 98.3 856.838 99.7361 854.927 102.641C853.056 105.485 851.668 109.772 850.629 115.625C848.549 127.349 847.802 145.808 847.802 172.8H849.802C849.802 145.792 850.554 127.501 852.599 115.975C853.623 110.203 854.954 106.24 856.598 103.74C858.202 101.301 860.067 100.3 862.302 100.3V98.3ZM847.802 172.8C847.802 204.588 848.699 224.479 850.931 236.434C852.045 242.402 853.513 246.521 855.464 249.163C857.471 251.88 859.966 253 862.902 253V251C860.587 251 858.695 250.17 857.073 247.975C855.396 245.704 853.995 241.948 852.897 236.066C850.704 224.321 849.802 204.612 849.802 172.8H847.802ZM959.785 204.3L959.821 203.301L958.875 203.266L958.789 204.209L959.785 204.3ZM1001.79 205.2L1002.78 205.285L1002.87 204.213L1001.8 204.2L1001.79 205.2ZM995.185 186.3L994.606 187.115L994.606 187.115L995.185 186.3ZM1064.79 144L1064.7 144.996L1065.68 145.084L1065.78 144.106L1064.79 144ZM1023.99 141.6L1022.99 141.484L1022.87 142.568L1023.96 142.6L1023.99 141.6ZM1030.89 163.2L1031.44 162.371L1031.44 162.37L1030.89 163.2ZM1013.49 282.5C992.404 282.5 978.154 275.908 969.696 263.038C961.185 250.088 958.388 230.57 960.781 204.391L958.789 204.209C956.383 230.53 959.136 250.612 968.024 264.137C976.966 277.742 991.966 284.5 1013.49 284.5V282.5ZM959.785 204.3C959.749 205.299 959.749 205.299 959.749 205.299C959.749 205.299 959.749 205.299 959.75 205.299C959.75 205.299 959.751 205.299 959.752 205.299C959.754 205.3 959.757 205.3 959.761 205.3C959.769 205.3 959.781 205.301 959.798 205.301C959.83 205.302 959.878 205.304 959.942 205.306C960.069 205.311 960.259 205.317 960.51 205.326C961.012 205.343 961.757 205.367 962.73 205.398C964.677 205.459 967.539 205.543 971.197 205.637C978.513 205.825 989.018 206.05 1001.77 206.2L1001.8 204.2C989.052 204.05 978.557 203.825 971.248 203.638C967.594 203.544 964.737 203.46 962.793 203.399C961.821 203.368 961.078 203.344 960.578 203.327C960.328 203.318 960.138 203.312 960.012 203.307C959.948 203.305 959.901 203.304 959.869 203.302C959.853 203.302 959.841 203.301 959.833 203.301C959.829 203.301 959.826 203.301 959.824 203.301C959.823 203.301 959.823 203.301 959.822 203.301C959.822 203.301 959.822 203.301 959.822 203.301C959.822 203.301 959.821 203.301 959.785 204.3ZM1000.79 205.115C999.437 220.889 999.797 232.435 1001.87 240.074C1002.91 243.901 1004.4 246.832 1006.4 248.815C1008.42 250.824 1010.91 251.8 1013.79 251.8V249.8C1011.41 249.8 1009.44 249.014 1007.81 247.395C1006.15 245.75 1004.79 243.187 1003.8 239.551C1001.82 232.265 1001.43 221.011 1002.78 205.285L1000.79 205.115ZM1013.79 251.8C1015.79 251.8 1017.62 251.419 1019.22 250.507C1020.84 249.592 1022.15 248.183 1023.18 246.244C1025.21 242.415 1026.19 236.43 1026.19 227.7H1024.19C1024.19 236.37 1023.21 241.935 1021.41 245.306C1020.53 246.967 1019.47 248.07 1018.24 248.768C1017 249.468 1015.53 249.8 1013.79 249.8V251.8ZM1026.19 227.7C1026.19 220.644 1024.87 214.511 1020.35 207.898C1015.86 201.336 1008.24 194.354 995.765 185.485L994.606 187.115C1007.03 195.946 1014.41 202.764 1018.7 209.027C1022.95 215.239 1024.19 220.956 1024.19 227.7H1026.19ZM995.765 185.485C982.347 175.944 973.396 166.451 967.79 156.051C962.188 145.657 959.885 134.28 959.885 120.9H957.885C957.885 134.52 960.232 146.243 966.03 156.999C971.824 167.749 981.023 177.456 994.606 187.115L995.765 185.485ZM959.885 120.9C959.885 101.746 965.447 88.399 974.859 79.8268C984.287 71.2392 997.734 67.3 1013.79 67.3V65.3C997.436 65.3 983.434 69.3108 973.512 78.3482C963.573 87.401 957.885 101.354 957.885 120.9H959.885ZM1013.79 67.3C1033.34 67.3 1047.08 73.9481 1055.32 86.681C1063.61 99.4858 1066.48 118.635 1063.79 143.894L1065.78 144.106C1068.49 118.665 1065.66 98.9642 1057 85.5939C1048.29 72.1518 1033.83 65.3 1013.79 65.3V67.3ZM1064.79 144C1064.87 143.004 1064.87 143.004 1064.87 143.004C1064.87 143.004 1064.87 143.004 1064.87 143.004C1064.87 143.004 1064.87 143.004 1064.87 143.004C1064.87 143.003 1064.86 143.003 1064.86 143.003C1064.85 143.002 1064.83 143 1064.82 142.999C1064.78 142.995 1064.72 142.99 1064.64 142.983C1064.49 142.97 1064.26 142.95 1063.97 142.925C1063.37 142.875 1062.51 142.802 1061.4 142.713C1059.19 142.534 1056.03 142.29 1052.22 142.027C1044.6 141.502 1034.38 140.901 1024.01 140.6L1023.96 142.6C1034.29 142.899 1044.47 143.498 1052.08 144.023C1055.88 144.285 1059.04 144.528 1061.24 144.706C1062.34 144.795 1063.21 144.868 1063.8 144.918C1064.09 144.943 1064.32 144.963 1064.47 144.976C1064.54 144.982 1064.6 144.988 1064.64 144.991C1064.66 144.993 1064.67 144.994 1064.68 144.995C1064.69 144.995 1064.69 144.995 1064.69 144.996C1064.69 144.996 1064.69 144.996 1064.7 144.996C1064.7 144.996 1064.7 144.996 1064.7 144.996C1064.7 144.996 1064.7 144.996 1064.79 144ZM1024.98 141.716C1026.78 126.226 1026.35 115.412 1024.27 108.427C1023.22 104.925 1021.74 102.316 1019.85 100.575C1017.94 98.8166 1015.67 98 1013.19 98V100C1015.2 100 1016.98 100.646 1018.5 102.047C1020.04 103.466 1021.37 105.713 1022.35 108.998C1024.32 115.588 1024.79 126.074 1022.99 141.484L1024.98 141.716ZM1013.19 98C1010.96 98 1009.01 98.6217 1007.35 99.833C1005.7 101.036 1004.4 102.782 1003.39 104.954C1001.39 109.276 1000.49 115.45 1000.49 123H1002.49C1002.49 115.55 1003.38 109.724 1005.2 105.796C1006.11 103.843 1007.22 102.401 1008.53 101.448C1009.82 100.503 1011.36 100 1013.19 100V98ZM1000.49 123C1000.49 130.53 1002.18 136.965 1006.82 143.456C1011.43 149.904 1018.9 156.36 1030.33 164.03L1031.44 162.37C1020.07 154.74 1012.84 148.446 1008.45 142.294C1004.09 136.185 1002.49 130.17 1002.49 123H1000.49ZM1030.33 164.029C1044.07 173.288 1053.23 181.962 1058.97 191.792C1064.71 201.607 1067.09 212.667 1067.09 226.8H1069.09C1069.09 212.433 1066.66 200.993 1060.7 190.783C1054.74 180.588 1045.3 171.712 1031.44 162.371L1030.33 164.029ZM1067.09 226.8C1067.09 247.475 1061.51 261.342 1052.14 270.055C1042.76 278.781 1029.4 282.5 1013.49 282.5V284.5C1029.67 284.5 1043.61 280.719 1053.5 271.52C1063.41 262.308 1069.09 247.825 1069.09 226.8H1067.09Z" fill="url(#paint0_linear_723_1362)"/>
<defs>
<linearGradient id="paint0_linear_723_1362" x1="533" y1="54" x2="533" y2="354" gradientUnits="userSpaceOnUse">
<stop stop-color="#0866B0"/>
<stop offset="1" stop-color="#46CAE9"/>
</linearGradient>
</defs>
</svg>
