<svg width="618" height="220" viewBox="0 0 618 220" fill="none" xmlns="http://www.w3.org/2000/svg">
<path d="M1.53555 214.3L0.535552 214.297L0.532237 215.311L1.54678 215.3L1.53555 214.3ZM0.335546 5.8V4.8H-0.677389L-0.664371 5.81285L0.335546 5.8ZM41.1356 5.49998L42.1355 5.49401L42.1295 4.48875L41.1243 4.50005L41.1356 5.49998ZM42.6356 214.3L42.6147 215.3L43.6441 215.321L43.6355 214.292L42.6356 214.3ZM1.53555 214.3C2.53554 214.303 2.53554 214.303 2.53555 214.302C2.53555 214.301 2.53555 214.3 2.53556 214.299C2.53556 214.296 2.53558 214.292 2.5356 214.286C2.53563 214.275 2.53568 214.258 2.53575 214.236C2.53589 214.191 2.5361 214.125 2.53636 214.036C2.53688 213.859 2.53763 213.594 2.53855 213.243C2.54038 212.542 2.54287 211.499 2.54551 210.129C2.55078 207.391 2.55664 203.349 2.55898 198.133C2.56367 187.703 2.5543 172.58 2.49804 153.81C2.38554 116.27 2.08552 64.1412 1.33546 5.78715L-0.664371 5.81285C0.085578 64.1588 0.385559 116.28 0.498052 153.815C0.554297 172.583 0.563672 187.704 0.558985 198.132C0.556642 203.347 0.550782 207.388 0.54551 210.126C0.542873 211.494 0.540384 212.537 0.538553 213.238C0.537638 213.588 0.536888 213.853 0.536366 214.03C0.536105 214.119 0.535902 214.185 0.535764 214.23C0.535694 214.252 0.535642 214.269 0.535606 214.28C0.535588 214.286 0.535575 214.29 0.535565 214.293C0.535562 214.294 0.535558 214.295 0.535556 214.296C0.535554 214.296 0.535552 214.297 1.53555 214.3ZM0.335546 5.8C0.335546 6.8 0.335611 6.8 0.335729 6.8C0.33584 6.8 0.336012 6.8 0.336234 6.8C0.336678 6.8 0.337337 6.8 0.338211 6.8C0.339959 6.8 0.342567 6.8 0.346035 6.8C0.352969 6.8 0.36334 6.79999 0.377143 6.79999C0.404747 6.79998 0.446075 6.79996 0.501082 6.79992C0.611095 6.79985 0.775821 6.79971 0.994893 6.79941C1.43304 6.79882 2.08857 6.79765 2.95856 6.79531C4.69853 6.79062 7.29633 6.78124 10.7285 6.76248C17.5929 6.72497 27.7948 6.64995 41.1468 6.49992L41.1243 4.50005C27.7763 4.65003 17.5782 4.72502 10.7176 4.76251C7.28727 4.78126 4.69132 4.79063 2.95316 4.79531C2.08409 4.79766 1.42946 4.79883 0.992216 4.79941C0.773593 4.79971 0.609315 4.79985 0.499748 4.79992C0.444964 4.79996 0.403859 4.79998 0.376476 4.79999C0.362785 4.79999 0.352526 4.8 0.345702 4.8C0.34229 4.8 0.339738 4.8 0.338045 4.8C0.337198 4.8 0.336567 4.8 0.33615 4.8C0.335942 4.8 0.335792 4.8 0.335688 4.8C0.33559 4.8 0.335546 4.8 0.335546 5.8ZM41.1356 5.49998C40.1356 5.50595 40.1356 5.50634 40.1356 5.50711C40.1356 5.50787 40.1356 5.50902 40.1356 5.51055C40.1356 5.51362 40.1356 5.51821 40.1357 5.52432C40.1358 5.53655 40.1359 5.55487 40.136 5.57923C40.1363 5.62795 40.1367 5.70086 40.1373 5.7976C40.1385 5.99107 40.1402 6.27986 40.1425 6.66114C40.1471 7.42369 40.154 8.55619 40.1631 10.036C40.1813 12.9956 40.2082 17.3445 40.2434 22.9016C40.3137 34.0158 40.4168 49.9629 40.5481 69.2943C40.8106 107.957 41.1856 160.158 41.6356 214.308L43.6355 214.292C43.1855 160.142 42.8105 107.943 42.548 69.2807C42.4168 49.9496 42.3137 34.0029 42.2433 22.889C42.2082 17.332 42.1812 12.9832 42.1631 10.0237C42.154 8.54397 42.1471 7.41153 42.1425 6.64904C42.1402 6.26779 42.1384 5.97902 42.1373 5.78558C42.1367 5.68886 42.1363 5.61596 42.136 5.56725C42.1358 5.54289 42.1357 5.52458 42.1356 5.51236C42.1356 5.50625 42.1356 5.50167 42.1356 5.4986C42.1356 5.49707 42.1355 5.49593 42.1355 5.49516C42.1355 5.4944 42.1355 5.49401 41.1356 5.49998ZM42.6356 214.3C42.6564 213.3 42.6563 213.3 42.6562 213.3C42.656 213.3 42.6558 213.3 42.6556 213.3C42.6551 213.3 42.6544 213.3 42.6535 213.3C42.6517 213.3 42.649 213.3 42.6454 213.3C42.6382 213.3 42.6275 213.3 42.6133 213.299C42.585 213.299 42.5426 213.298 42.4863 213.297C42.3737 213.295 42.2053 213.292 41.9817 213.288C41.5346 213.28 40.8665 213.27 39.9816 213.258C38.2119 213.234 35.5749 213.206 32.1035 213.188C25.1606 213.15 14.8801 213.15 1.52431 213.3L1.54678 215.3C14.891 215.15 25.1605 215.15 32.0926 215.187C35.5587 215.206 38.1905 215.234 39.9551 215.258C40.8374 215.269 41.5029 215.28 41.9476 215.288C42.1699 215.291 42.337 215.294 42.4483 215.297C42.504 215.298 42.5458 215.298 42.5735 215.299C42.5874 215.299 42.5978 215.299 42.6046 215.3C42.6081 215.3 42.6106 215.3 42.6123 215.3C42.6132 215.3 42.6138 215.3 42.6142 215.3C42.6144 215.3 42.6145 215.3 42.6146 215.3C42.6147 215.3 42.6147 215.3 42.6356 214.3ZM84.3449 44.5L83.3453 44.4722L83.3165 45.51L84.3546 45.5L84.3449 44.5ZM84.0449 5.49998L84.0544 4.50003L83.0232 4.49021L83.0452 5.52126L84.0449 5.49998ZM186.645 4.6L187.643 4.66111L187.709 3.58189L186.628 3.60014L186.645 4.6ZM186.045 44.5L186.021 45.4997L187.057 45.525L187.045 44.4881L186.045 44.5ZM155.445 44.2V43.2H154.445V44.2H155.445ZM156.645 215.2L156.623 216.2L157.659 216.222L157.645 215.187L156.645 215.2ZM115.845 215.5L114.845 215.496L114.84 216.523L115.867 216.5L115.845 215.5ZM115.245 44.2L116.245 44.1913L116.236 43.1903L115.235 43.2L115.245 44.2ZM84.3449 44.5C85.3445 44.5278 85.3445 44.5277 85.3445 44.5275C85.3445 44.5274 85.3446 44.5272 85.3446 44.527C85.3446 44.5266 85.3446 44.526 85.3446 44.5253C85.3446 44.5238 85.3447 44.5217 85.3448 44.5188C85.3449 44.5132 85.3451 44.5049 85.3454 44.4939C85.346 44.472 85.3468 44.4393 85.3479 44.3957C85.3499 44.3084 85.3529 44.1774 85.3564 44.0009C85.3635 43.6481 85.3729 43.1136 85.3823 42.3848C85.4011 40.9271 85.4199 38.6915 85.4199 35.575C85.4199 29.342 85.3448 19.5849 85.0447 5.47871L83.0452 5.52126C83.345 19.6151 83.4199 29.3579 83.4199 35.575C83.4199 38.6835 83.4012 40.9104 83.3825 42.359C83.3732 43.0832 83.3638 43.6129 83.3568 43.9608C83.3533 44.1348 83.3504 44.2633 83.3484 44.348C83.3474 44.3903 83.3466 44.4217 83.3461 44.4424C83.3458 44.4527 83.3456 44.4603 83.3455 44.4653C83.3454 44.4678 83.3454 44.4696 83.3453 44.4708C83.3453 44.4713 83.3453 44.4717 83.3453 44.472C83.3453 44.4721 83.3453 44.4722 83.3453 44.4722C83.3453 44.4723 83.3453 44.4722 84.3449 44.5ZM84.0449 5.49998C84.0354 6.49994 84.0355 6.49994 84.0358 6.49994C84.0361 6.49994 84.0365 6.49995 84.037 6.49995C84.038 6.49996 84.0394 6.49998 84.0414 6.49999C84.0453 6.50003 84.0512 6.50009 84.059 6.50016C84.0745 6.5003 84.0978 6.5005 84.1289 6.50077C84.1909 6.5013 84.284 6.50208 84.4084 6.50303C84.657 6.50494 85.0307 6.50758 85.5314 6.51052C86.5328 6.51638 88.0422 6.52342 90.0754 6.52811C94.1418 6.53749 100.303 6.53749 108.687 6.49998C125.454 6.42496 151.108 6.19992 186.662 5.59985L186.628 3.60014C151.082 4.20007 125.436 4.42502 108.678 4.5C100.299 4.53749 94.1418 4.53749 90.08 4.52811C88.0492 4.52343 86.5422 4.5164 85.5432 4.51055C85.0437 4.50762 84.6712 4.50499 84.4237 4.50309C84.3 4.50214 84.2075 4.50137 84.146 4.50084C84.1153 4.50058 84.0923 4.50038 84.0771 4.50024C84.0695 4.50017 84.0638 4.50012 84.06 4.50008C84.0581 4.50006 84.0567 4.50005 84.0558 4.50004C84.0553 4.50004 84.055 4.50003 84.0547 4.50003C84.0545 4.50003 84.0544 4.50003 84.0449 5.49998ZM186.645 4.6C185.647 4.53889 185.647 4.539 185.647 4.53918C185.647 4.53931 185.647 4.53954 185.647 4.5398C185.647 4.54033 185.647 4.54109 185.647 4.54206C185.646 4.54402 185.646 4.54687 185.646 4.55061C185.646 4.5581 185.645 4.56916 185.644 4.58378C185.642 4.61302 185.64 4.65649 185.637 4.71406C185.63 4.8292 185.62 5.00075 185.608 5.22768C185.584 5.68155 185.55 6.35695 185.51 7.24569C185.43 9.02316 185.327 11.654 185.233 15.0725C185.045 21.9096 184.895 31.8977 185.045 44.5119L187.045 44.4881C186.895 31.9022 187.045 21.9404 187.232 15.1275C187.326 11.721 187.429 9.10183 187.508 7.33555C187.548 6.45241 187.582 5.7825 187.605 5.33403C187.617 5.10979 187.627 4.94091 187.633 4.82841C187.636 4.77217 187.639 4.73001 187.641 4.70209C187.641 4.68812 187.642 4.67772 187.642 4.67088C187.643 4.66746 187.643 4.66494 187.643 4.66331C187.643 4.66249 187.643 4.6619 187.643 4.66154C187.643 4.66135 187.643 4.66124 187.643 4.66115C187.643 4.6611 187.643 4.66111 186.645 4.6ZM186.045 44.5C186.069 43.5003 186.069 43.5003 186.069 43.5003C186.069 43.5003 186.069 43.5003 186.069 43.5003C186.068 43.5003 186.068 43.5003 186.067 43.5002C186.065 43.5002 186.063 43.5001 186.06 43.5001C186.054 43.4999 186.045 43.4997 186.033 43.4994C186.009 43.4989 185.973 43.498 185.926 43.4969C185.831 43.4947 185.689 43.4915 185.503 43.4874C185.13 43.4791 184.577 43.4674 183.857 43.4533C182.416 43.4252 180.305 43.3876 177.621 43.3501C172.255 43.275 164.6 43.2 155.445 43.2V45.2C164.59 45.2 172.235 45.2749 177.593 45.3499C180.273 45.3874 182.38 45.4248 183.818 45.4529C184.536 45.467 185.087 45.4787 185.459 45.4869C185.644 45.491 185.785 45.4942 185.879 45.4964C185.926 45.4975 185.962 45.4983 185.985 45.4989C185.997 45.4991 186.006 45.4994 186.012 45.4995C186.015 45.4996 186.017 45.4996 186.018 45.4997C186.019 45.4997 186.02 45.4997 186.02 45.4997C186.02 45.4997 186.02 45.4997 186.02 45.4997C186.021 45.4997 186.021 45.4997 186.045 44.5ZM154.445 44.2C154.445 73.9026 154.445 124.607 155.645 215.213L157.645 215.187C156.445 124.593 156.445 73.8973 156.445 44.2H154.445ZM156.645 215.2C156.667 214.2 156.667 214.2 156.666 214.2C156.666 214.2 156.666 214.2 156.666 214.2C156.665 214.2 156.665 214.2 156.664 214.2C156.662 214.2 156.659 214.2 156.656 214.2C156.649 214.2 156.639 214.2 156.625 214.199C156.598 214.199 156.557 214.198 156.502 214.197C156.394 214.195 156.232 214.192 156.016 214.188C155.584 214.181 154.937 214.172 154.078 214.163C152.358 214.144 149.786 214.125 146.37 214.125C139.538 214.125 129.33 214.2 115.823 214.5L115.867 216.5C129.36 216.2 139.552 216.125 146.37 216.125C149.779 216.125 152.344 216.144 154.056 216.162C154.912 216.172 155.555 216.181 155.983 216.188C156.197 216.192 156.358 216.195 156.464 216.197C156.518 216.198 156.558 216.198 156.584 216.199C156.597 216.199 156.607 216.199 156.614 216.2C156.617 216.2 156.619 216.2 156.621 216.2C156.622 216.2 156.622 216.2 156.623 216.2C156.623 216.2 156.623 216.2 156.623 216.2C156.623 216.2 156.623 216.2 156.645 215.2ZM115.845 215.5C116.845 215.504 116.845 215.504 116.845 215.504C116.845 215.503 116.845 215.502 116.845 215.501C116.845 215.499 116.845 215.496 116.845 215.492C116.845 215.484 116.845 215.472 116.845 215.455C116.845 215.422 116.845 215.373 116.846 215.308C116.846 215.178 116.847 214.983 116.848 214.724C116.85 214.206 116.853 213.433 116.856 212.412C116.862 210.371 116.871 207.339 116.878 203.375C116.892 195.448 116.901 183.794 116.882 168.886C116.845 139.072 116.695 96.2441 116.245 44.1913L114.245 44.2086C114.695 96.2559 114.845 139.078 114.882 168.889C114.901 183.794 114.892 195.446 114.878 203.372C114.871 207.334 114.863 210.366 114.856 212.406C114.853 213.426 114.85 214.199 114.848 214.716C114.847 214.975 114.846 215.17 114.846 215.3C114.845 215.365 114.845 215.414 114.845 215.447C114.845 215.463 114.845 215.475 114.845 215.483C114.845 215.487 114.845 215.49 114.845 215.493C114.845 215.494 114.845 215.494 114.845 215.495C114.845 215.495 114.845 215.496 115.845 215.5ZM115.235 43.2L84.3352 43.5L84.3546 45.5L115.255 45.1999L115.235 43.2ZM227.914 210.4L226.914 210.407L226.921 211.387L227.9 211.4L227.914 210.4ZM225.514 8.8V7.8H224.499L224.514 8.81488L225.514 8.8ZM309.514 6.99998L310.514 7.01816L310.533 5.96881L309.484 6.00044L309.514 6.99998ZM310.114 46.9L310.128 47.8999L311.152 47.8857L311.113 46.8616L310.114 46.9ZM266.014 48.4L265.96 47.4014L265.014 47.4519V48.4H266.014ZM266.314 97.9L265.314 97.9095L265.323 98.9H266.314V97.9ZM304.114 97.3L305.113 97.32L305.134 96.2708L304.086 96.3004L304.114 97.3ZM304.114 134.5L304.095 135.5L305.128 135.519L305.114 134.486L304.114 134.5ZM266.914 134.5L266.9 133.5L265.889 133.514L265.914 134.525L266.914 134.5ZM268.114 173.8L267.115 173.843L267.155 174.783L268.096 174.8L268.114 173.8ZM311.014 173.8L312.013 173.846L312.062 172.788L311.002 172.8L311.014 173.8ZM310.414 211.6L310.398 212.6L311.414 212.616V211.6H310.414ZM227.914 210.4C228.914 210.393 228.914 210.392 228.914 210.392C228.914 210.391 228.914 210.39 228.914 210.389C228.914 210.386 228.914 210.383 228.914 210.378C228.913 210.368 228.913 210.353 228.913 210.334C228.913 210.294 228.912 210.235 228.912 210.157C228.911 210.001 228.909 209.767 228.906 209.456C228.902 208.836 228.894 207.91 228.884 206.688C228.864 204.245 228.834 200.62 228.792 195.893C228.707 186.437 228.576 172.571 228.389 154.927C228.014 119.638 227.414 69.2367 226.514 8.78511L224.514 8.81488C225.414 69.2633 226.014 119.662 226.389 154.948C226.576 172.591 226.707 186.456 226.792 195.91C226.834 200.638 226.864 204.262 226.884 206.704C226.894 207.926 226.902 208.852 226.907 209.472C226.909 209.782 226.911 210.016 226.912 210.172C226.913 210.251 226.913 210.309 226.913 210.349C226.913 210.368 226.914 210.383 226.914 210.393C226.914 210.398 226.914 210.401 226.914 210.404C226.914 210.405 226.914 210.406 226.914 210.407C226.914 210.407 226.914 210.407 227.914 210.4ZM225.514 8.8C225.514 9.8 225.514 9.8 225.514 9.8C225.514 9.8 225.515 9.8 225.515 9.8C225.516 9.8 225.517 9.8 225.518 9.8C225.521 9.79999 225.526 9.79999 225.532 9.79999C225.544 9.79998 225.562 9.79997 225.586 9.79994C225.635 9.79988 225.707 9.79977 225.803 9.79955C225.997 9.79911 226.288 9.79823 226.679 9.79647C227.461 9.79295 228.645 9.78591 230.252 9.77183C233.466 9.74368 238.372 9.6874 245.143 9.57486C258.685 9.34977 279.69 8.89966 309.544 7.99953L309.484 6.00044C279.638 6.90032 258.642 7.35021 245.11 7.57513C238.343 7.68759 233.443 7.74381 230.235 7.77191C228.631 7.78596 227.45 7.79298 226.67 7.79649C226.28 7.79824 225.991 7.79912 225.799 7.79956C225.703 7.79978 225.631 7.79989 225.584 7.79994C225.56 7.79997 225.543 7.79998 225.531 7.79999C225.525 7.79999 225.521 7.79999 225.518 7.8C225.516 7.8 225.515 7.8 225.515 7.8C225.514 7.8 225.514 7.8 225.514 7.8C225.514 7.8 225.514 7.8 225.514 8.8ZM309.514 6.99998C308.514 6.9818 308.514 6.98191 308.514 6.98207C308.514 6.98221 308.514 6.98244 308.514 6.98272C308.514 6.98327 308.514 6.98408 308.514 6.98514C308.514 6.98725 308.514 6.99037 308.514 6.99448C308.513 7.00271 308.513 7.01494 308.513 7.03112C308.512 7.06348 308.512 7.11166 308.511 7.17537C308.509 7.3028 308.506 7.49236 308.503 7.7417C308.496 8.24038 308.488 8.97819 308.481 9.93638C308.467 11.8528 308.457 14.6507 308.476 18.1803C308.514 25.2392 308.664 35.2254 309.114 46.9384L311.113 46.8616C310.663 35.1745 310.514 25.2108 310.476 18.1697C310.457 14.6492 310.467 11.8597 310.481 9.95109C310.488 8.99678 310.496 8.26272 310.502 7.76764C310.506 7.5201 310.508 7.33232 310.51 7.20662C310.511 7.14377 310.512 7.09645 310.513 7.06494C310.513 7.04919 310.513 7.03739 310.513 7.02958C310.513 7.02567 310.513 7.02277 310.513 7.02086C310.513 7.01991 310.513 7.01921 310.513 7.01876C310.513 7.01853 310.514 7.01838 310.514 7.01827C310.514 7.01818 310.514 7.01816 309.514 6.99998ZM310.114 46.9C310.1 45.9001 310.1 45.9001 310.099 45.9001C310.099 45.9001 310.099 45.9001 310.099 45.9001C310.098 45.9001 310.097 45.9001 310.096 45.9001C310.093 45.9002 310.089 45.9002 310.084 45.9003C310.073 45.9005 310.057 45.9007 310.036 45.901C309.995 45.9016 309.932 45.9025 309.85 45.9038C309.686 45.9063 309.443 45.9101 309.125 45.9154C308.489 45.9259 307.557 45.9423 306.367 45.9658C303.989 46.0127 300.583 46.0878 296.474 46.2004C288.256 46.4255 277.222 46.8008 265.96 47.4014L266.067 49.3986C277.305 48.7992 288.321 48.4245 296.529 48.1996C300.632 48.0872 304.032 48.0122 306.407 47.9654C307.594 47.942 308.525 47.9256 309.158 47.9151C309.475 47.9098 309.718 47.906 309.881 47.9035C309.962 47.9023 310.024 47.9014 310.066 47.9008C310.086 47.9005 310.102 47.9003 310.112 47.9001C310.117 47.9 310.121 47.9 310.124 47.8999C310.125 47.8999 310.126 47.8999 310.127 47.8999C310.127 47.8999 310.127 47.8999 310.127 47.8999C310.128 47.8999 310.128 47.8999 310.114 46.9ZM266.014 48.4C265.014 48.4 265.014 48.4001 265.014 48.4002C265.014 48.4003 265.014 48.4006 265.014 48.4008C265.014 48.4014 265.014 48.4022 265.014 48.4033C265.014 48.4056 265.014 48.4089 265.014 48.4133C265.014 48.4221 265.014 48.4353 265.014 48.4528C265.014 48.4879 265.014 48.5405 265.014 48.6104C265.014 48.7501 265.014 48.959 265.014 49.236C265.015 49.7901 265.016 50.6166 265.018 51.7068C265.023 53.8873 265.032 57.1224 265.051 61.3419C265.089 69.781 265.164 82.1577 265.314 97.9095L267.314 97.8905C267.164 82.1423 267.089 69.769 267.051 61.333C267.032 57.1151 267.023 53.8815 267.018 51.7025C267.016 50.613 267.015 49.7872 267.014 49.2339C267.014 48.9572 267.014 48.7486 267.014 48.6093C267.014 48.5396 267.014 48.4873 267.014 48.4523C267.014 48.4349 267.014 48.4217 267.014 48.413C267.014 48.4087 267.014 48.4054 267.014 48.4032C267.014 48.4021 267.014 48.4013 267.014 48.4008C267.014 48.4005 267.014 48.4003 267.014 48.4002C267.014 48.4 267.014 48.4 266.014 48.4ZM266.314 97.9C266.314 98.9 266.314 98.9 266.314 98.9C266.314 98.9 266.314 98.9 266.315 98.9C266.315 98.9 266.316 98.9 266.317 98.9C266.319 98.9 266.322 98.9 266.326 98.9C266.334 98.9 266.346 98.9 266.362 98.9C266.394 98.9 266.442 98.8999 266.505 98.8998C266.632 98.8997 266.82 98.8994 267.067 98.8988C267.56 98.8976 268.289 98.8953 269.23 98.8906C271.111 98.8812 273.841 98.8625 277.237 98.8249C284.029 98.7499 293.485 98.5998 304.142 98.2996L304.086 96.3004C293.443 96.6002 283.998 96.7501 277.215 96.8251C273.824 96.8625 271.098 96.8813 269.22 96.8906C268.281 96.8953 267.554 96.8977 267.062 96.8988C266.816 96.8994 266.629 96.8997 266.503 96.8998C266.44 96.8999 266.393 96.9 266.361 96.9C266.345 96.9 266.333 96.9 266.325 96.9C266.321 96.9 266.319 96.9 266.317 96.9C266.316 96.9 266.315 96.9 266.314 96.9C266.314 96.9 266.314 96.9 266.314 96.9C266.314 96.9 266.314 96.9 266.314 97.9ZM304.114 97.3C303.114 97.28 303.114 97.2801 303.114 97.2802C303.114 97.2803 303.114 97.2805 303.114 97.2808C303.114 97.2813 303.114 97.282 303.114 97.2829C303.114 97.2848 303.114 97.2876 303.114 97.2913C303.113 97.2988 303.113 97.3098 303.113 97.3245C303.112 97.3538 303.112 97.3975 303.111 97.4554C303.108 97.5713 303.105 97.7438 303.102 97.9711C303.094 98.4257 303.083 99.0995 303.072 99.9772C303.048 101.733 303.02 104.304 303.001 107.569C302.964 114.1 302.964 123.406 303.114 134.514L305.114 134.486C304.964 123.394 304.964 114.1 305.001 107.581C305.02 104.321 305.048 101.755 305.071 100.004C305.083 99.1286 305.094 98.4571 305.101 98.0047C305.105 97.7785 305.108 97.607 305.11 97.4923C305.111 97.4349 305.112 97.3917 305.113 97.3629C305.113 97.3485 305.113 97.3377 305.113 97.3306C305.113 97.327 305.113 97.3243 305.113 97.3225C305.113 97.3217 305.113 97.321 305.113 97.3206C305.113 97.3204 305.113 97.3202 305.113 97.3201C305.113 97.32 305.113 97.32 304.114 97.3ZM304.114 134.5C304.133 133.5 304.132 133.5 304.132 133.5C304.132 133.5 304.132 133.5 304.132 133.5C304.131 133.5 304.13 133.5 304.129 133.5C304.127 133.5 304.125 133.5 304.121 133.5C304.113 133.5 304.101 133.5 304.086 133.499C304.055 133.499 304.008 133.498 303.947 133.497C303.825 133.495 303.644 133.492 303.405 133.488C302.927 133.48 302.222 133.47 301.309 133.458C299.484 133.434 296.828 133.406 293.507 133.388C286.864 133.35 277.558 133.35 266.9 133.5L266.928 135.5C277.57 135.35 286.863 135.35 293.496 135.387C296.812 135.406 299.462 135.434 301.284 135.458C302.194 135.469 302.898 135.48 303.373 135.488C303.611 135.491 303.791 135.494 303.912 135.497C303.973 135.498 304.019 135.498 304.049 135.499C304.064 135.499 304.076 135.499 304.084 135.5C304.087 135.5 304.09 135.5 304.092 135.5C304.093 135.5 304.094 135.5 304.094 135.5C304.094 135.5 304.095 135.5 304.095 135.5C304.095 135.5 304.095 135.5 304.114 134.5ZM265.914 134.525C266.214 146.522 266.514 159.732 267.115 173.843L269.113 173.757C268.513 159.668 268.213 146.478 267.913 134.475L265.914 134.525ZM268.114 173.8C268.096 174.8 268.096 174.8 268.096 174.8C268.096 174.8 268.096 174.8 268.097 174.8C268.097 174.8 268.098 174.8 268.099 174.8C268.101 174.8 268.104 174.8 268.108 174.8C268.117 174.8 268.129 174.8 268.146 174.801C268.178 174.801 268.227 174.802 268.292 174.803C268.422 174.805 268.616 174.808 268.872 174.812C269.383 174.82 270.142 174.83 271.135 174.842C273.12 174.866 276.038 174.894 279.771 174.912C287.238 174.95 297.969 174.95 311.025 174.8L311.002 172.8C297.958 172.95 287.239 172.95 279.781 172.913C276.052 172.894 273.139 172.866 271.158 172.842C270.168 172.831 269.411 172.82 268.901 172.812C268.647 172.809 268.454 172.806 268.325 172.803C268.261 172.802 268.212 172.802 268.18 172.801C268.164 172.801 268.151 172.801 268.143 172.8C268.139 172.8 268.136 172.8 268.134 172.8C268.133 172.8 268.133 172.8 268.132 172.8C268.132 172.8 268.132 172.8 268.132 172.8C268.132 172.8 268.132 172.8 268.114 173.8ZM311.014 173.8C310.015 173.754 310.015 173.754 310.015 173.754C310.015 173.754 310.015 173.754 310.015 173.754C310.015 173.755 310.015 173.755 310.015 173.756C310.015 173.758 310.014 173.76 310.014 173.764C310.014 173.77 310.014 173.78 310.013 173.793C310.012 173.818 310.01 173.857 310.008 173.907C310.003 174.009 309.997 174.16 309.989 174.362C309.972 174.765 309.949 175.368 309.921 176.17C309.864 177.772 309.789 180.166 309.714 183.339C309.564 189.684 309.414 199.142 309.414 211.6H311.414C311.414 199.158 311.564 189.716 311.713 183.386C311.788 180.221 311.863 177.834 311.919 176.24C311.947 175.443 311.971 174.843 311.987 174.444C311.995 174.244 312.002 174.094 312.006 173.995C312.008 173.945 312.01 173.908 312.011 173.883C312.012 173.87 312.012 173.861 312.012 173.855C312.012 173.852 312.012 173.85 312.013 173.848C312.013 173.848 312.013 173.847 312.013 173.847C312.013 173.847 312.013 173.847 312.013 173.847C312.013 173.846 312.013 173.846 311.014 173.8ZM310.414 211.6C310.43 210.6 310.43 210.6 310.429 210.6C310.429 210.6 310.429 210.6 310.428 210.6C310.427 210.6 310.425 210.6 310.423 210.6C310.418 210.6 310.411 210.6 310.402 210.6C310.384 210.599 310.357 210.599 310.321 210.598C310.248 210.597 310.14 210.596 309.997 210.593C309.712 210.589 309.287 210.582 308.73 210.573C307.617 210.556 305.976 210.53 303.867 210.497C299.648 210.431 293.554 210.338 286.054 210.225C271.053 210 250.428 209.7 227.927 209.4L227.9 211.4C250.4 211.7 271.024 212 286.024 212.225C293.523 212.337 299.617 212.431 303.836 212.497C305.945 212.53 307.585 212.555 308.699 212.573C309.255 212.582 309.68 212.588 309.966 212.593C310.108 212.595 310.216 212.597 310.289 212.598C310.325 212.599 310.352 212.599 310.37 212.599C310.379 212.6 310.386 212.6 310.391 212.6C310.393 212.6 310.395 212.6 310.396 212.6C310.397 212.6 310.397 212.6 310.397 212.6C310.398 212.6 310.398 212.6 310.414 211.6ZM352.8 209.2L351.8 209.188L351.788 210.2H352.8V209.2ZM351.9 12.4L351.825 11.4028L350.887 11.4737L350.901 12.4148L351.9 12.4ZM391.8 10.6L392.765 10.3347L392.557 9.58076L391.775 9.6003L391.8 10.6ZM429.9 138.7L428.947 139.001L430.9 138.67L429.9 138.7ZM423.3 0.399996L423.364 -0.597973L422.228 -0.670491L422.303 0.465512L423.3 0.399996ZM460.5 0.999989L461.5 0.98512L461.485 -0.0128889L460.487 7.24792e-05L460.5 0.999989ZM464.7 215.5L464.845 216.489L465.72 216.361L465.7 215.478L464.7 215.5ZM426.6 219.1L425.644 219.393L425.877 220.153L426.67 220.098L426.6 219.1ZM387.3 91.6L388.256 91.3046L386.3 91.6111L387.3 91.6ZM391.5 209.8L391.463 210.799L392.56 210.84L392.499 209.744L391.5 209.8ZM352.8 209.2C353.8 209.212 353.8 209.212 353.8 209.211C353.8 209.211 353.8 209.21 353.8 209.208C353.8 209.206 353.8 209.203 353.8 209.198C353.801 209.189 353.801 209.175 353.801 209.157C353.801 209.12 353.802 209.065 353.803 208.992C353.805 208.847 353.807 208.628 353.81 208.339C353.816 207.759 353.825 206.893 353.836 205.749C353.857 203.459 353.885 200.053 353.913 195.584C353.969 186.648 354.025 173.465 354.025 156.475C354.025 122.496 353.8 73.2907 352.9 12.3852L350.901 12.4148C351.8 73.3093 352.025 122.504 352.025 156.475C352.025 173.46 351.969 186.639 351.913 195.572C351.885 200.038 351.857 203.443 351.836 205.73C351.825 206.874 351.816 207.739 351.81 208.317C351.807 208.607 351.805 208.824 351.803 208.97C351.802 209.043 351.802 209.097 351.801 209.134C351.801 209.152 351.801 209.165 351.801 209.174C351.801 209.179 351.801 209.182 351.801 209.185C351.8 209.186 351.8 209.187 351.8 209.187C351.8 209.188 351.8 209.188 352.8 209.2ZM351.9 12.4C351.976 13.3971 351.976 13.3971 351.976 13.3971C351.976 13.3971 351.976 13.3971 351.976 13.3971C351.977 13.3971 351.977 13.397 351.978 13.397C351.98 13.3968 351.983 13.3966 351.987 13.3963C351.994 13.3958 352.006 13.3949 352.021 13.3938C352.051 13.3915 352.097 13.3881 352.158 13.3837C352.279 13.3748 352.461 13.3617 352.701 13.3448C353.181 13.3109 353.894 13.2618 354.825 13.201C356.687 13.0793 359.421 12.9108 362.904 12.7235C369.871 12.349 379.836 11.8994 391.825 11.5997L391.775 9.6003C379.764 9.90057 369.78 10.351 362.797 10.7264C359.305 10.9141 356.564 11.0831 354.695 11.2052C353.76 11.2663 353.043 11.3156 352.56 11.3497C352.318 11.3668 352.135 11.38 352.012 11.389C351.95 11.3935 351.904 11.397 351.873 11.3993C351.857 11.4004 351.845 11.4013 351.837 11.4019C351.833 11.4022 351.83 11.4024 351.828 11.4026C351.827 11.4027 351.827 11.4027 351.826 11.4028C351.826 11.4028 351.826 11.4028 351.825 11.4028C351.825 11.4028 351.825 11.4028 351.9 12.4ZM391.8 10.6C390.836 10.8653 390.836 10.8655 390.836 10.866C390.837 10.8664 390.837 10.8671 390.837 10.8679C390.837 10.8697 390.838 10.8723 390.839 10.8758C390.841 10.8828 390.844 10.8932 390.848 10.907C390.855 10.9346 390.867 10.976 390.882 11.0308C390.912 11.1405 390.957 11.3043 391.017 11.5209C391.137 11.9541 391.316 12.5986 391.551 13.444C392.022 15.1349 392.72 17.6297 393.627 20.8465C395.442 27.28 398.096 36.6013 401.453 48.154C408.167 71.2593 417.694 103.292 428.947 139.001L430.854 138.399C419.607 102.708 410.084 70.6907 403.373 47.596C400.018 36.0487 397.365 26.7325 395.552 20.3035C394.645 17.089 393.948 14.5964 393.478 12.9075C393.243 12.0631 393.064 11.4197 392.945 10.9875C392.885 10.7714 392.84 10.6081 392.81 10.4988C392.795 10.4442 392.783 10.4031 392.776 10.3757C392.772 10.362 392.769 10.3517 392.767 10.3449C392.766 10.3415 392.766 10.3389 392.765 10.3372C392.765 10.3364 392.765 10.3357 392.765 10.3353C392.765 10.3349 392.765 10.3347 391.8 10.6ZM430.9 138.67C430 108.963 428.199 59.75 424.298 0.33448L422.303 0.465512C426.202 59.85 428.001 109.037 428.901 138.73L430.9 138.67ZM423.3 0.399996C423.237 1.39797 423.237 1.39797 423.237 1.39798C423.237 1.39799 423.237 1.39801 423.238 1.39802C423.238 1.39805 423.239 1.3981 423.24 1.39816C423.242 1.39828 423.244 1.39845 423.248 1.39868C423.255 1.39913 423.266 1.39979 423.28 1.40066C423.308 1.4024 423.35 1.40494 423.405 1.40824C423.515 1.41484 423.679 1.42444 423.896 1.43653C424.329 1.4607 424.973 1.49483 425.817 1.53481C427.506 1.61477 429.996 1.71813 433.209 1.81206C439.634 1.99993 448.948 2.1501 460.513 1.9999L460.487 7.24792e-05C448.953 0.14987 439.667 4.86374e-05 433.267 -0.187082C430.067 -0.280646 427.589 -0.383533 425.912 -0.462949C425.073 -0.502656 424.435 -0.536495 424.007 -0.560366C423.793 -0.572302 423.632 -0.581745 423.524 -0.588183C423.47 -0.591403 423.43 -0.593871 423.403 -0.595524C423.39 -0.596351 423.38 -0.596972 423.373 -0.597383C423.37 -0.597589 423.368 -0.597742 423.366 -0.59784C423.365 -0.59789 423.365 -0.597925 423.365 -0.597947C423.364 -0.597959 423.364 -0.597965 423.364 -0.59797C423.364 -0.597973 423.364 -0.597973 423.3 0.399996ZM460.5 0.999989C459.501 1.01486 459.501 1.01517 459.501 1.01579C459.501 1.01641 459.501 1.01734 459.501 1.01857C459.501 1.02104 459.501 1.02474 459.501 1.02967C459.501 1.03952 459.501 1.05429 459.501 1.07396C459.502 1.11329 459.503 1.17222 459.504 1.25064C459.506 1.40748 459.51 1.64229 459.515 1.95422C459.524 2.57808 459.539 3.51044 459.558 4.74456C459.597 7.2128 459.655 10.8881 459.735 15.7165C459.894 25.3733 460.138 39.6427 460.476 58.0933C461.151 94.9945 462.201 148.621 463.701 215.522L465.7 215.478C464.2 148.579 463.15 94.9555 462.475 58.0567C462.138 39.6073 461.894 25.3392 461.735 15.6835C461.655 10.8556 461.596 7.18092 461.558 4.71323C461.538 3.47938 461.524 2.54729 461.514 1.92369C461.51 1.61189 461.506 1.37722 461.504 1.22051C461.503 1.14215 461.502 1.08329 461.501 1.04402C461.501 1.02439 461.501 1.00966 461.501 0.999835C461.5 0.994924 461.5 0.991241 461.5 0.988789C461.5 0.987562 461.5 0.986645 461.5 0.986032C461.5 0.985422 461.5 0.98512 460.5 0.999989ZM464.7 215.5C464.556 214.511 464.556 214.511 464.556 214.511C464.556 214.511 464.555 214.511 464.555 214.511C464.555 214.511 464.555 214.511 464.554 214.511C464.553 214.511 464.551 214.511 464.548 214.512C464.542 214.512 464.534 214.514 464.522 214.515C464.499 214.519 464.463 214.524 464.416 214.531C464.321 214.544 464.178 214.564 463.986 214.59C463.603 214.642 463.025 214.719 462.25 214.817C460.7 215.013 458.363 215.294 455.219 215.631C448.931 216.304 439.419 217.203 426.531 218.102L426.67 220.098C439.582 219.197 449.119 218.296 455.432 217.619C458.588 217.281 460.938 216.999 462.501 216.801C463.282 216.703 463.867 216.625 464.257 216.572C464.452 216.545 464.598 216.525 464.696 216.511C464.745 216.504 464.782 216.499 464.807 216.495C464.819 216.493 464.829 216.492 464.835 216.491C464.838 216.49 464.841 216.49 464.842 216.49C464.843 216.49 464.844 216.49 464.844 216.49C464.845 216.49 464.845 216.49 464.845 216.49C464.845 216.489 464.845 216.489 464.7 215.5ZM426.6 219.1C427.556 218.807 427.556 218.807 427.556 218.806C427.556 218.806 427.556 218.805 427.556 218.804C427.555 218.803 427.555 218.801 427.554 218.798C427.552 218.792 427.549 218.783 427.545 218.771C427.538 218.747 427.527 218.711 427.513 218.664C427.484 218.569 427.44 218.427 427.382 218.238C427.266 217.861 427.093 217.297 426.864 216.552C426.407 215.061 425.726 212.844 424.833 209.938C423.047 204.125 420.412 195.556 417.019 184.531C410.231 162.48 400.406 130.605 388.256 91.3046L386.345 91.8954C398.495 131.195 408.32 163.07 415.107 185.119C418.501 196.144 421.135 204.713 422.921 210.525C423.814 213.431 424.495 215.648 424.952 217.139C425.181 217.884 425.354 218.448 425.47 218.825C425.528 219.014 425.572 219.156 425.601 219.251C425.615 219.298 425.626 219.334 425.633 219.358C425.637 219.369 425.64 219.378 425.642 219.384C425.643 219.387 425.643 219.39 425.644 219.391C425.644 219.392 425.644 219.392 425.644 219.393C425.644 219.393 425.644 219.393 426.6 219.1ZM386.3 91.6111C386.601 118.626 387.801 161.541 390.502 209.856L392.499 209.744C389.8 161.459 388.6 118.574 388.3 91.5889L386.3 91.6111ZM391.5 209.8C391.537 208.801 391.537 208.801 391.537 208.801C391.537 208.801 391.537 208.801 391.537 208.801C391.536 208.801 391.535 208.801 391.534 208.801C391.532 208.8 391.529 208.8 391.525 208.8C391.517 208.8 391.505 208.799 391.489 208.799C391.458 208.798 391.411 208.796 391.348 208.794C391.224 208.789 391.038 208.783 390.794 208.775C390.306 208.758 389.584 208.735 388.648 208.707C386.775 208.65 384.044 208.575 380.61 208.5C373.741 208.35 364.059 208.2 352.8 208.2V210.2C364.042 210.2 373.709 210.35 380.566 210.5C383.994 210.575 386.72 210.65 388.588 210.706C389.521 210.734 390.241 210.757 390.727 210.774C390.97 210.782 391.154 210.788 391.278 210.793C391.339 210.795 391.386 210.796 391.417 210.798C391.433 210.798 391.444 210.799 391.452 210.799C391.456 210.799 391.459 210.799 391.461 210.799C391.462 210.799 391.462 210.799 391.463 210.799C391.463 210.799 391.463 210.799 391.463 210.799C391.463 210.799 391.463 210.799 391.5 209.8ZM506.635 139.3L506.671 138.301L505.725 138.266L505.639 139.209L506.635 139.3ZM548.635 140.2L549.631 140.285L549.723 139.213L548.647 139.2L548.635 140.2ZM542.035 121.3L541.455 122.115L541.455 122.115L542.035 121.3ZM611.635 79L611.546 79.996L612.525 80.0837L612.629 79.1059L611.635 79ZM570.835 76.6L569.841 76.4843L569.715 77.568L570.806 77.5996L570.835 76.6ZM577.735 98.2L578.294 97.3707L578.292 97.3696L577.735 98.2ZM560.335 217.5C539.254 217.5 525.004 210.908 516.545 198.038C508.034 185.088 505.237 165.57 507.631 139.391L505.639 139.209C503.232 165.53 505.985 185.612 514.874 199.137C523.815 212.742 538.816 219.5 560.335 219.5V217.5ZM506.635 139.3C506.598 140.299 506.599 140.299 506.599 140.299C506.599 140.299 506.599 140.299 506.599 140.299C506.6 140.299 506.601 140.299 506.602 140.299C506.604 140.3 506.607 140.3 506.611 140.3C506.619 140.3 506.631 140.301 506.647 140.301C506.679 140.302 506.727 140.304 506.791 140.306C506.919 140.311 507.109 140.317 507.36 140.326C507.861 140.343 508.606 140.367 509.58 140.398C511.527 140.459 514.388 140.543 518.047 140.637C525.363 140.825 535.868 141.05 548.623 141.2L548.647 139.2C535.902 139.05 525.406 138.825 518.098 138.638C514.444 138.544 511.586 138.46 509.643 138.399C508.671 138.368 507.928 138.344 507.427 138.327C507.177 138.318 506.988 138.312 506.861 138.307C506.798 138.305 506.75 138.303 506.719 138.302C506.703 138.302 506.691 138.301 506.683 138.301C506.679 138.301 506.676 138.301 506.674 138.301C506.673 138.301 506.672 138.301 506.672 138.301C506.672 138.301 506.671 138.301 506.671 138.301C506.671 138.301 506.671 138.301 506.635 139.3ZM547.638 140.115C546.286 155.889 546.647 167.435 548.72 175.074C549.758 178.901 551.248 181.832 553.246 183.815C555.271 185.824 557.759 186.8 560.635 186.8V184.8C558.26 184.8 556.286 184.014 554.655 182.395C552.997 180.75 551.637 178.187 550.65 174.551C548.673 167.265 548.283 156.011 549.631 140.285L547.638 140.115ZM560.635 186.8C562.636 186.8 564.467 186.419 566.074 185.507C567.685 184.592 569 183.183 570.03 181.244C572.064 177.415 573.035 171.43 573.035 162.7H571.035C571.035 171.37 570.055 176.935 568.264 180.306C567.382 181.967 566.315 183.07 565.086 183.768C563.852 184.468 562.383 184.8 560.635 184.8V186.8ZM573.035 162.7C573.035 155.644 571.722 149.511 567.198 142.898C562.708 136.336 555.091 129.354 542.614 120.485L541.455 122.115C553.879 130.946 561.261 137.764 565.547 144.027C569.797 150.239 571.035 155.956 571.035 162.7H573.035ZM542.614 120.485C529.197 110.944 520.246 101.451 514.64 91.0505C509.038 80.6568 506.735 69.2799 506.735 55.9H504.735C504.735 69.5201 507.082 81.2432 512.88 91.9995C518.674 102.749 527.873 112.456 541.455 122.115L542.614 120.485ZM506.735 55.9C506.735 36.7459 512.297 23.399 521.708 14.8268C531.136 6.23916 544.583 2.29998 560.635 2.29998V0.299985C544.286 0.299985 530.283 4.31081 520.361 13.3482C510.423 22.401 504.735 36.3541 504.735 55.9H506.735ZM560.635 2.29998C580.188 2.29998 593.925 8.94814 602.17 21.681C610.462 34.4858 613.331 53.6349 610.64 78.8941L612.629 79.1059C615.339 53.6651 612.507 33.9642 603.849 20.5939C595.145 7.15184 580.681 0.299985 560.635 0.299985V2.29998ZM611.635 79C611.724 78.004 611.724 78.004 611.724 78.004C611.724 78.0039 611.723 78.0039 611.723 78.0039C611.722 78.0038 611.721 78.0037 611.72 78.0036C611.718 78.0034 611.714 78.0031 611.709 78.0026C611.699 78.0017 611.684 78.0004 611.665 77.9987C611.626 77.9953 611.568 77.9901 611.491 77.9834C611.338 77.9701 611.112 77.9504 610.816 77.9251C610.224 77.8746 609.357 77.8018 608.251 77.7126C606.04 77.5342 602.877 77.2902 599.066 77.0274C591.446 76.5018 581.232 75.9009 570.864 75.6004L570.806 77.5996C581.138 77.8991 591.324 78.4982 598.928 79.0226C602.73 79.2848 605.886 79.5283 608.09 79.7061C609.193 79.7951 610.057 79.8676 610.646 79.9179C610.94 79.943 611.165 79.9626 611.317 79.9758C611.393 79.9825 611.45 79.9875 611.488 79.9909C611.507 79.9926 611.522 79.9939 611.531 79.9947C611.536 79.9952 611.54 79.9955 611.542 79.9957C611.543 79.9958 611.544 79.9959 611.545 79.9959C611.545 79.996 611.545 79.996 611.545 79.996C611.546 79.996 611.546 79.996 611.635 79ZM571.828 76.7157C573.633 61.2257 573.202 50.4121 571.118 43.4266C570.073 39.9249 568.593 37.3156 566.703 35.5753C564.793 33.8167 562.522 33 560.035 33V35C562.047 35 563.827 35.6458 565.348 37.0466C566.889 38.4657 568.221 40.7126 569.201 43.9984C571.167 50.5879 571.637 61.0742 569.841 76.4843L571.828 76.7157ZM560.035 33C557.812 33 555.859 33.6217 554.2 34.833C552.552 36.0362 551.247 37.7819 550.24 39.9544C548.236 44.2764 547.335 50.4498 547.335 58H549.335C549.335 50.5502 550.233 44.7236 552.055 40.7956C552.96 38.843 554.074 37.4013 555.379 36.4482C556.673 35.5033 558.208 35 560.035 35V33ZM547.335 58C547.335 65.53 549.034 71.9649 553.671 78.4562C558.277 84.9042 565.747 91.3596 577.178 99.0304L578.292 97.3696C566.923 89.7404 559.693 83.4458 555.299 77.2938C550.935 71.1851 549.335 65.17 549.335 58H547.335ZM577.176 99.0293C590.915 108.288 600.078 116.962 605.821 126.792C611.556 136.607 613.935 147.667 613.935 161.8H615.935C615.935 147.433 613.514 135.993 607.548 125.783C601.591 115.588 592.155 106.712 578.294 97.3707L577.176 99.0293ZM613.935 161.8C613.935 182.475 608.36 196.342 598.991 205.055C589.609 213.781 576.247 217.5 560.335 217.5V219.5C576.523 219.5 590.461 215.719 600.353 206.52C610.259 197.308 615.935 182.825 615.935 161.8H613.935Z" fill="url(#paint0_linear_723_1425)"/>
<defs>
<linearGradient id="paint0_linear_723_1425" x1="304" y1="-11" x2="304" y2="289" gradientUnits="userSpaceOnUse">
<stop stop-color="#0866B0"/>
<stop offset="1" stop-color="#46CAE9"/>
</linearGradient>
</defs>
</svg>
