<svg width="526" height="145" viewBox="0 0 526 145" fill="none" xmlns="http://www.w3.org/2000/svg">
<g clip-path="url(#clip0_903_50)">
<mask id="mask0_903_50" style="mask-type:luminance" maskUnits="userSpaceOnUse" x="0" y="0" width="526" height="145">
<path d="M526 0H0V145H526V0Z" fill="white"/>
</mask>
<g mask="url(#mask0_903_50)">
<path d="M0 72.5C0 112.383 0.0998101 145 0.232891 145C0.432511 145 27.5476 140.035 30.8746 139.378L32.6047 139.049V112.416V85.8164H42.9184H53.2321V80.9503C53.2321 78.2871 53.3319 71.3491 53.465 65.4965L53.6647 54.9094H43.1513H32.6047V43.237V31.5646H44.7483C51.4356 31.5646 56.8917 31.4989 56.8917 31.4002C56.8917 31.0385 59.5534 2.95919 59.7198 1.54535L59.9195 0H29.9431H0V72.5Z" fill="#F9FAFB"/>
<path d="M497.654 4.2421L471.104 6.41219V71.9088V137.405L472.203 137.57C473.167 137.734 524.57 141.416 525.601 141.384C525.9 141.384 526 137.898 526 125.108V108.833H514.688H503.377V96.996V85.1592H513.025H522.673V71.0211V56.8825H512.692H502.711V47.512V38.1412L503.476 38.0097C503.875 37.911 507.269 37.7795 511.028 37.648C514.788 37.5494 519.679 37.3849 521.941 37.2534L526 37.0562V19.5312V1.97339L525.102 2.00627C524.57 2.03915 512.226 3.02554 497.654 4.2421Z" fill="#F9FAFB"/>
<path d="M327.211 8.7782C327.544 12.0662 331.337 61.6163 331.271 61.6818C331.237 61.7474 326.347 49.878 320.391 35.3122C314.469 20.7464 309.479 8.67955 309.346 8.44943C309.146 8.08774 299.963 9.76458 284.892 12.9211L283.461 13.217V69.7374V126.258H298.266H313.072L312.905 123.891C312.572 119.485 311.342 83.0538 311.475 81.607C311.575 80.3245 312.572 82.5608 322.021 105.116C327.744 118.827 332.601 130.171 332.734 130.368C332.934 130.565 337.558 130.269 345.41 129.612C352.231 129.02 357.82 128.494 357.82 128.461C357.853 128.428 357.687 104.722 357.454 75.7871C357.221 46.8531 357.022 19.5299 357.022 15.0254L356.988 6.90405H342.017H327.012L327.211 8.7782Z" fill="#F9FAFB"/>
<path d="M92.9898 8.91056C73.0941 10.2258 62.1485 23.6736 58.6882 50.9638C57.9899 56.6193 57.6904 75.8211 58.1895 82.5287C59.8529 104.295 65.808 118.433 76.3881 125.634C82.0775 129.481 90.6276 131.552 99.0785 131.059C108.694 130.533 115.248 127.837 121.136 122.017C125.96 117.25 128.589 112.778 131.117 105.15C134.644 94.4965 136.241 78.5831 135.442 62.0117C134.544 43.4673 131.716 31.9265 125.894 23.0818C120.338 14.6645 111.554 9.63394 101.308 9.00921C99.677 8.91056 97.9471 8.8119 97.4812 8.74617C97.0153 8.7133 95.0192 8.77903 92.9898 8.91056ZM97.6809 34.7541C100.11 37.3516 101.141 47.7087 101.141 69.8696C101.141 97.1602 99.4108 108.504 95.6182 106.07C93.9881 104.985 92.7569 99.6918 92.1579 90.9129C91.7258 84.5012 91.7258 55.1398 92.1579 48.9911C92.7901 40.3108 93.9216 35.5103 95.6182 34.3596C96.55 33.702 96.7164 33.7348 97.6809 34.7541Z" fill="#F9FAFB"/>
<path d="M139.734 68.6867V128.56H155.005H170.243L170.442 124.385C170.575 122.05 170.842 114.488 171.041 107.518C171.241 100.547 171.507 94.4312 171.64 93.9382C171.807 93.2476 173.237 97.6867 177.629 112.68C180.823 123.497 183.518 132.473 183.651 132.605C183.917 132.901 215.124 130.467 215.457 130.139C215.557 130.007 212.097 119.256 207.772 106.169L199.92 82.43L201.583 80.9838C207.106 76.216 211.664 67.0095 212.962 57.9019C213.527 53.9236 213.161 44.0595 212.296 40.4098C208.969 26.1071 200.153 14.9938 188.908 10.8509C184.017 9.07539 184.416 9.10826 161.293 8.97674L139.734 8.84521V68.6867ZM174.036 37.1876C176.398 38.3384 178.327 41.2976 179.359 45.3747C180.057 48.1037 179.958 56.7511 179.193 59.513C177.762 64.7078 175.233 67.7329 171.441 68.8838L170.675 69.0809V52.6411V36.1683L171.773 36.3985C172.339 36.4971 173.37 36.8588 174.036 37.1876Z" fill="#F9FAFB"/>
<path d="M213.927 24.4958V39.7849H222.41H230.895V83.8437V127.903H246.864H262.834V86.4741V45.0457H271.484H280.134V29.7566V14.4675L279.402 14.3359C278.704 14.1716 215.257 9.17378 214.359 9.2067C214.027 9.2067 213.927 12.4947 213.927 24.4958Z" fill="#F9FAFB"/>
<path d="M363.975 72.1716V131.848H380.443H396.912V72.1716V12.4946H380.443H363.975V72.1716Z" fill="#F9FAFB"/>
<path d="M434.507 16.6367C416.475 17.5902 401.47 18.3794 401.171 18.3794C400.605 18.4122 400.572 19.3657 400.572 33.8657V49.3193H409.056H417.539V92.5561V135.793H433.675H449.812V90.7479V45.7025H458.794H467.777V30.249C467.777 21.7331 467.677 14.8284 467.544 14.8284C467.378 14.8612 452.54 15.6504 434.507 16.6367Z" fill="#F9FAFB"/>
</g>
</g>
<defs>
<clipPath id="clip0_903_50">
<rect width="526" height="145" fill="white"/>
</clipPath>
</defs>
</svg>
