<svg width="152" height="21" viewBox="0 0 152 21" fill="none" xmlns="http://www.w3.org/2000/svg">
<path d="M1.75023 15.5366V6.35262H4.36823C5.0589 6.35262 5.6609 6.43662 6.17423 6.60462C6.68757 6.77262 7.0889 7.05729 7.37823 7.45862C7.66757 7.85062 7.81223 8.38262 7.81223 9.05462C7.81223 10.016 7.49957 10.73 6.87423 11.1966C6.2489 11.6633 5.43223 11.8966 4.42423 11.8966H2.91223V15.5366H1.75023ZM2.91223 10.9446H4.28423C5.0869 10.9446 5.67957 10.7953 6.06223 10.4966C6.45423 10.1886 6.65023 9.70795 6.65023 9.05462C6.65023 8.39195 6.4449 7.93462 6.03423 7.68262C5.6329 7.42129 5.0309 7.29062 4.22823 7.29062H2.91223V10.9446ZM11.8721 15.7046C11.3215 15.7046 10.8035 15.5646 10.3181 15.2846C9.84213 15.0046 9.45479 14.5986 9.15613 14.0666C8.86679 13.5346 8.72213 12.8953 8.72213 12.1486C8.72213 11.3833 8.86679 10.7346 9.15613 10.2026C9.45479 9.67062 9.84213 9.26462 10.3181 8.98462C10.8035 8.70462 11.3215 8.56462 11.8721 8.56462C12.4321 8.56462 12.9501 8.70462 13.4261 8.98462C13.9021 9.26462 14.2848 9.67062 14.5741 10.2026C14.8728 10.7346 15.0221 11.3833 15.0221 12.1486C15.0221 12.8953 14.8728 13.5346 14.5741 14.0666C14.2848 14.5986 13.9021 15.0046 13.4261 15.2846C12.9501 15.5646 12.4321 15.7046 11.8721 15.7046ZM11.8721 14.7526C12.4601 14.7526 12.9315 14.5146 13.2861 14.0386C13.6501 13.5533 13.8321 12.9233 13.8321 12.1486C13.8321 11.3646 13.6501 10.73 13.2861 10.2446C12.9315 9.75929 12.4601 9.51662 11.8721 9.51662C11.2935 9.51662 10.8221 9.75929 10.4581 10.2446C10.0941 10.73 9.91213 11.3646 9.91213 12.1486C9.91213 12.9233 10.0941 13.5533 10.4581 14.0386C10.8221 14.5146 11.2935 14.7526 11.8721 14.7526ZM17.8373 15.5366L15.9473 8.73262H17.1233L18.1313 12.6666C18.206 12.984 18.276 13.3013 18.3413 13.6186C18.4067 13.9266 18.472 14.2393 18.5373 14.5566H18.5933C18.668 14.2393 18.7427 13.9266 18.8173 13.6186C18.892 13.3013 18.9713 12.984 19.0553 12.6666L20.1053 8.73262H21.2253L22.2893 12.6666C22.3733 12.984 22.4527 13.3013 22.5273 13.6186C22.6113 13.9266 22.6907 14.2393 22.7653 14.5566H22.8213C22.896 14.2393 22.966 13.9266 23.0313 13.6186C23.106 13.3013 23.176 12.984 23.2413 12.6666L24.2353 8.73262H25.3273L23.5073 15.5366H22.1073L21.1273 11.8826C21.0433 11.556 20.964 11.234 20.8893 10.9166C20.824 10.5993 20.7493 10.268 20.6653 9.92262H20.6093C20.5347 10.268 20.46 10.604 20.3853 10.9306C20.3107 11.248 20.2267 11.57 20.1333 11.8966L19.1813 15.5366H17.8373ZM29.5115 15.7046C28.9048 15.7046 28.3541 15.5646 27.8595 15.2846C27.3648 14.9953 26.9728 14.5846 26.6835 14.0526C26.3941 13.5206 26.2495 12.886 26.2495 12.1486C26.2495 11.402 26.3941 10.7626 26.6835 10.2306C26.9821 9.69862 27.3648 9.28795 27.8315 8.99862C28.2981 8.70929 28.7881 8.56462 29.3015 8.56462C30.1695 8.56462 30.8368 8.85395 31.3035 9.43262C31.7795 10.0113 32.0175 10.786 32.0175 11.7566C32.0175 11.878 32.0128 11.9993 32.0035 12.1206C32.0035 12.2326 31.9941 12.3306 31.9755 12.4146H27.3835C27.4301 13.1333 27.6541 13.7073 28.0555 14.1366C28.4661 14.566 28.9981 14.7806 29.6515 14.7806C29.9781 14.7806 30.2768 14.734 30.5475 14.6406C30.8275 14.538 31.0935 14.4073 31.3455 14.2486L31.7515 15.0046C31.4621 15.1913 31.1308 15.3546 30.7575 15.4946C30.3935 15.6346 29.9781 15.7046 29.5115 15.7046ZM27.3695 11.5886H31.0095C31.0095 10.898 30.8601 10.3753 30.5615 10.0206C30.2721 9.65662 29.8615 9.47462 29.3295 9.47462C28.8535 9.47462 28.4241 9.66129 28.0415 10.0346C27.6681 10.3986 27.4441 10.9166 27.3695 11.5886ZM33.6988 15.5366V8.73262H34.6508L34.7488 9.96462H34.7908C35.0241 9.53529 35.3088 9.19462 35.6448 8.94262C35.9808 8.69062 36.3401 8.56462 36.7228 8.56462C36.9934 8.56462 37.2361 8.61129 37.4508 8.70462L37.2268 9.71262C37.1148 9.67529 37.0121 9.64729 36.9188 9.62862C36.8254 9.60995 36.7088 9.60062 36.5688 9.60062C36.2794 9.60062 35.9761 9.71729 35.6588 9.95062C35.3508 10.184 35.0801 10.59 34.8468 11.1686V15.5366H33.6988ZM41.1736 15.7046C40.5669 15.7046 40.0162 15.5646 39.5216 15.2846C39.0269 14.9953 38.6349 14.5846 38.3456 14.0526C38.0562 13.5206 37.9116 12.886 37.9116 12.1486C37.9116 11.402 38.0562 10.7626 38.3456 10.2306C38.6442 9.69862 39.0269 9.28795 39.4936 8.99862C39.9602 8.70929 40.4502 8.56462 40.9636 8.56462C41.8316 8.56462 42.4989 8.85395 42.9656 9.43262C43.4416 10.0113 43.6796 10.786 43.6796 11.7566C43.6796 11.878 43.6749 11.9993 43.6656 12.1206C43.6656 12.2326 43.6562 12.3306 43.6376 12.4146H39.0456C39.0922 13.1333 39.3162 13.7073 39.7176 14.1366C40.1282 14.566 40.6602 14.7806 41.3136 14.7806C41.6402 14.7806 41.9389 14.734 42.2096 14.6406C42.4896 14.538 42.7556 14.4073 43.0076 14.2486L43.4136 15.0046C43.1242 15.1913 42.7929 15.3546 42.4196 15.4946C42.0556 15.6346 41.6402 15.7046 41.1736 15.7046ZM39.0316 11.5886H42.6716C42.6716 10.898 42.5222 10.3753 42.2236 10.0206C41.9342 9.65662 41.5236 9.47462 40.9916 9.47462C40.5156 9.47462 40.0862 9.66129 39.7036 10.0346C39.3302 10.3986 39.1062 10.9166 39.0316 11.5886ZM47.6849 15.7046C46.8356 15.7046 46.1542 15.3966 45.6409 14.7806C45.1276 14.1553 44.8709 13.278 44.8709 12.1486C44.8709 11.4113 45.0062 10.7766 45.2769 10.2446C45.5569 9.70329 45.9209 9.28795 46.3689 8.99862C46.8262 8.70929 47.3116 8.56462 47.8249 8.56462C48.2169 8.56462 48.5576 8.63462 48.8469 8.77462C49.1362 8.91462 49.4302 9.10595 49.7289 9.34862L49.6729 8.18662V5.56862H50.8349V15.5366H49.8829L49.7849 14.7386H49.7429C49.4816 15 49.1736 15.2286 48.8189 15.4246C48.4642 15.6113 48.0862 15.7046 47.6849 15.7046ZM47.9369 14.7386C48.5342 14.7386 49.1129 14.426 49.6729 13.8006V10.2446C49.3836 9.98329 49.1036 9.80129 48.8329 9.69862C48.5716 9.58662 48.3009 9.53062 48.0209 9.53062C47.6569 9.53062 47.3256 9.64262 47.0269 9.86662C46.7376 10.0813 46.5042 10.3846 46.3269 10.7766C46.1496 11.1593 46.0609 11.612 46.0609 12.1346C46.0609 12.9466 46.2242 13.586 46.5509 14.0526C46.8776 14.51 47.3396 14.7386 47.9369 14.7386ZM58.9393 15.7046C58.6219 15.7046 58.2906 15.63 57.9453 15.4806C57.6093 15.322 57.2919 15.1073 56.9933 14.8366H56.9513L56.8533 15.5366H55.9293V5.56862H57.0773V8.28462L57.0493 9.51662C57.3573 9.24595 57.6933 9.02195 58.0573 8.84462C58.4306 8.65795 58.8039 8.56462 59.1773 8.56462C60.0639 8.56462 60.7359 8.87729 61.1933 9.50262C61.6506 10.128 61.8793 10.968 61.8793 12.0226C61.8793 12.7973 61.7393 13.46 61.4593 14.0106C61.1886 14.5613 60.8293 14.9813 60.3813 15.2706C59.9426 15.56 59.4619 15.7046 58.9393 15.7046ZM58.7433 14.7386C59.3033 14.7386 59.7653 14.5006 60.1293 14.0246C60.5026 13.5393 60.6893 12.8766 60.6893 12.0366C60.6893 11.29 60.5493 10.688 60.2693 10.2306C59.9986 9.76395 59.5413 9.53062 58.8972 9.53062C58.6079 9.53062 58.3139 9.60995 58.0153 9.76862C57.7166 9.92729 57.4039 10.156 57.0773 10.4546V14.0246C57.3759 14.286 57.6699 14.4726 57.9593 14.5846C58.2579 14.6873 58.5193 14.7386 58.7433 14.7386ZM63.7248 18.4626C63.5755 18.4626 63.4308 18.4486 63.2908 18.4206C63.1602 18.3926 63.0388 18.36 62.9268 18.3226L63.1508 17.4126C63.2255 17.4313 63.3095 17.45 63.4028 17.4686C63.4962 17.4966 63.5848 17.5106 63.6688 17.5106C64.0515 17.5106 64.3688 17.3706 64.6208 17.0906C64.8728 16.82 65.0688 16.4746 65.2088 16.0546L65.3628 15.5506L62.6328 8.73262H63.8228L65.2088 12.4986C65.3115 12.788 65.4188 13.1006 65.5308 13.4366C65.6522 13.7726 65.7642 14.0993 65.8668 14.4166H65.9228C66.0255 14.1086 66.1235 13.7866 66.2168 13.4506C66.3102 13.1146 66.4035 12.7973 66.4968 12.4986L67.7148 8.73262H68.8348L66.2728 16.0966C66.1142 16.5446 65.9228 16.946 65.6988 17.3006C65.4842 17.6553 65.2135 17.9353 64.8868 18.1406C64.5695 18.3553 64.1822 18.4626 63.7248 18.4626Z" fill="#4B5563"/>
<path d="M82.8303 16.4042C81.6795 16.4042 80.6653 16.1708 79.7868 15.7041C78.9083 15.2374 78.2242 14.5784 77.7345 13.7262C77.2448 12.8745 77 11.878 77 10.7371V10.4705C77 9.31498 77.2409 8.31503 77.7228 7.47016C78.2046 6.62578 78.8809 5.97024 79.7516 5.50353C80.6222 5.03682 81.6246 4.80347 82.7597 4.80347C83.8948 4.80347 84.8586 5.03682 85.6979 5.50353C86.5372 5.97024 87.1905 6.62578 87.6567 7.47016C88.1228 8.31454 88.3564 9.30031 88.3564 10.426V11.3369H79.7046C79.7354 12.1964 80.0542 12.8853 80.6609 13.4038C81.2672 13.9224 82.0135 14.1817 82.8998 14.1817C83.7861 14.1817 84.4154 14.0002 84.8355 13.6372C85.2552 13.2742 85.574 12.8632 85.7919 12.4039L88.0073 13.4929C87.7894 13.893 87.4745 14.3191 87.0627 14.7707C86.6503 15.2227 86.1024 15.6077 85.4188 15.9262C84.7347 16.2447 83.8718 16.4042 82.8303 16.4042ZM79.7286 9.40353H85.6288C85.5667 8.67803 85.2748 8.09978 84.7543 7.67025C84.2332 7.24072 83.5609 7.02596 82.7372 7.02596C81.9136 7.02596 81.1981 7.24072 80.6849 7.67025C80.1717 8.10027 79.8529 8.67803 79.7286 9.40353Z" fill="black"/>
<path d="M114.563 7.38113C114.081 6.53675 113.44 5.89588 112.638 5.45852C111.838 5.02166 111.166 4.80249 110.234 4.80249C109.145 4.80249 108.309 4.98056 107.726 5.33622C107.143 5.69139 106.72 6.0989 106.455 6.55827H105.864V5.11363H103.229L101.476 5.11412H101.477L98.3752 5.11363L95.5531 8.91383H94.964L92.1424 5.11363H89.0172L93.2379 10.5586L88.9467 16.0916H92.1184L94.9635 12.2243H95.5526L98.3978 16.0916H101.546L97.2548 10.5586L99.976 7.04748C100.82 7.05776 103.606 7.04748 103.606 7.04748V20.5365H105.863V14.7139H106.454C106.625 14.981 106.909 15.2472 107.212 15.5138C107.515 15.7809 107.911 15.9952 108.401 16.1581C108.891 16.321 109.501 16.4027 110.232 16.4027C111.18 16.4027 111.856 16.184 112.648 15.7467C113.441 15.3103 114.079 14.6689 114.561 13.8241C115.042 12.9797 115.284 11.965 115.284 10.7792V10.424C115.284 9.23867 115.042 8.22404 114.561 7.37917L114.563 7.38113ZM112.604 10.7151C112.604 11.8261 112.289 12.6813 111.66 13.282C111.03 13.8818 110.225 14.1817 109.245 14.1817C108.266 14.1817 107.477 13.8818 106.832 13.282C106.186 12.6813 105.865 11.8261 105.865 10.7151V10.4925C105.865 9.36684 106.186 8.5068 106.832 7.91437C107.477 7.32242 108.282 7.02547 109.245 7.02547C110.209 7.02547 111.01 7.32242 111.647 7.91437C112.285 8.50729 112.604 9.36684 112.604 10.4925V10.7151Z" fill="black"/>
<path d="M117.345 16.0931V0.536621H120.028V16.0931H117.345Z" fill="black"/>
<path d="M128.105 16.4042C126.954 16.4042 125.924 16.1781 125.015 15.7261C124.106 15.2746 123.39 14.6298 122.87 13.7927C122.349 12.9557 122.089 11.9518 122.089 10.7816V10.426C122.089 9.25579 122.349 8.24801 122.87 7.40363C123.39 6.55925 124.106 5.91447 125.015 5.47026C125.924 5.02557 126.954 4.80347 128.105 4.80347C129.256 4.80347 130.282 5.02557 131.183 5.47026C132.085 5.91496 132.796 6.55925 133.317 7.40363C133.837 8.24801 134.098 9.25579 134.098 10.426V10.7816C134.098 11.9523 133.837 12.9562 133.317 13.7927C132.796 14.6298 132.084 15.2746 131.183 15.7261C130.281 16.1777 129.255 16.4042 128.105 16.4042ZM128.105 14.1371C129.084 14.1371 129.885 13.8373 130.507 13.237C131.128 12.6367 131.44 11.7963 131.44 10.7146V10.4925C131.44 9.41136 131.129 8.56991 130.507 7.97014C129.885 7.36987 129.084 7.06999 128.105 7.06999C127.125 7.06999 126.324 7.36987 125.703 7.97014C125.081 8.56991 124.77 9.41136 124.77 10.4925V10.7146C124.77 11.7963 125.081 12.6367 125.703 13.237C126.324 13.8368 127.125 14.1371 128.105 14.1371Z" fill="black"/>
<path d="M136.96 16.0932L135.164 5.11475H137.823L139.059 14.3819H139.455L141.204 5.11475H145.496L147.245 14.3819H147.641L148.877 5.11475H151.536L149.74 16.0932H145.286L143.56 6.82601H143.164L141.415 16.0932H136.96H136.96Z" fill="black"/>
</svg>
