<svg width="1085" height="220" viewBox="0 0 1085 220" fill="none" xmlns="http://www.w3.org/2000/svg">
<path d="M1.10469 44.5L0.105073 44.4722L0.0762453 45.51L1.1144 45.5L1.10469 44.5ZM0.804688 5.49998L0.814211 4.50003L-0.217023 4.49021L-0.195086 5.52126L0.804688 5.49998ZM103.405 4.6L104.403 4.66111L104.469 3.58189L103.388 3.60014L103.405 4.6ZM102.805 44.5L102.78 45.4997L103.817 45.525L103.805 44.4881L102.805 44.5ZM72.2047 44.2V43.2H71.2047V44.2H72.2047ZM73.4047 215.2L73.383 216.2L74.4183 216.222L74.4046 215.187L73.4047 215.2ZM32.6047 215.5L31.6047 215.496L31.6001 216.523L32.6269 216.5L32.6047 215.5ZM32.0047 44.2L33.0047 44.1913L32.996 43.1903L31.995 43.2L32.0047 44.2ZM1.10469 44.5C2.1043 44.5278 2.1043 44.5277 2.10431 44.5275C2.10431 44.5274 2.10432 44.5272 2.10432 44.527C2.10433 44.5266 2.10435 44.526 2.10437 44.5253C2.10441 44.5238 2.10447 44.5217 2.10454 44.5188C2.10469 44.5132 2.10491 44.5049 2.1052 44.4939C2.10576 44.472 2.10659 44.4393 2.10763 44.3957C2.10971 44.3084 2.11266 44.1774 2.1162 44.0009C2.12329 43.6481 2.1327 43.1136 2.1421 42.3848C2.16091 40.9271 2.17969 38.6915 2.17969 35.575C2.17969 29.342 2.10459 19.5849 1.80446 5.47871L-0.195086 5.52126C0.104782 19.6151 0.179688 29.3579 0.179688 35.575C0.179688 38.6835 0.160962 40.9104 0.142271 42.359C0.132925 43.0832 0.123589 43.6129 0.116608 43.9608C0.113117 44.1348 0.110215 44.2633 0.108194 44.348C0.107184 44.3903 0.106395 44.4217 0.105862 44.4424C0.105596 44.4527 0.105394 44.4603 0.105261 44.4653C0.105195 44.4678 0.105145 44.4696 0.105114 44.4708C0.105098 44.4713 0.105087 44.4717 0.10508 44.472C0.105076 44.4721 0.105075 44.4722 0.105073 44.4722C0.105073 44.4723 0.105073 44.4722 1.10469 44.5ZM0.804688 5.49998C0.795164 6.49994 0.795313 6.49994 0.795583 6.49994C0.795833 6.49995 0.796222 6.49995 0.796723 6.49995C0.797723 6.49996 0.799205 6.49998 0.801168 6.5C0.805094 6.50003 0.810947 6.50009 0.818731 6.50016C0.834297 6.5003 0.857584 6.5005 0.888623 6.50077C0.950702 6.50131 1.04379 6.50208 1.16813 6.50303C1.41681 6.50494 1.79051 6.50758 2.29121 6.51051C3.29261 6.51638 4.802 6.52342 6.83519 6.52811C10.9016 6.53749 17.0632 6.53749 25.4467 6.49998C42.2135 6.42496 67.8677 6.19992 103.422 5.59985L103.388 3.60014C67.8417 4.20007 42.1958 4.42502 25.4377 4.5C17.0587 4.53749 10.9015 4.53748 6.83981 4.52811C4.80894 4.52343 3.30192 4.5164 2.30293 4.51055C1.80343 4.50762 1.43094 4.50499 1.18348 4.50309C1.05975 4.50214 0.967279 4.50137 0.905816 4.50085C0.875085 4.50058 0.852106 4.50038 0.836849 4.50024C0.82922 4.50017 0.823522 4.50012 0.819751 4.50008C0.817865 4.50006 0.816461 4.50005 0.815538 4.50004C0.815076 4.50004 0.814744 4.50003 0.814514 4.50003C0.814303 4.50003 0.814211 4.50003 0.804688 5.49998ZM103.405 4.6C102.407 4.53889 102.407 4.539 102.407 4.53918C102.407 4.53931 102.407 4.53954 102.407 4.5398C102.406 4.54033 102.406 4.54109 102.406 4.54206C102.406 4.54402 102.406 4.54687 102.406 4.55061C102.405 4.5581 102.405 4.56916 102.404 4.58378C102.402 4.61302 102.4 4.65649 102.396 4.71406C102.39 4.8292 102.38 5.00075 102.368 5.22768C102.344 5.68155 102.31 6.35695 102.27 7.24569C102.19 9.02316 102.086 11.654 101.993 15.0725C101.805 21.9096 101.655 31.8977 101.805 44.5119L103.805 44.4881C103.655 31.9022 103.805 21.9404 103.992 15.1275C104.085 11.721 104.188 9.10183 104.268 7.33555C104.307 6.45241 104.341 5.7825 104.365 5.33403C104.377 5.10979 104.387 4.94091 104.393 4.82841C104.396 4.77217 104.399 4.73001 104.4 4.70209C104.401 4.68812 104.402 4.67772 104.402 4.67088C104.402 4.66746 104.403 4.66494 104.403 4.66331C104.403 4.66249 104.403 4.6619 104.403 4.66153C104.403 4.66135 104.403 4.66124 104.403 4.66115C104.403 4.6611 104.403 4.66111 103.405 4.6ZM102.805 44.5C102.829 43.5003 102.829 43.5003 102.829 43.5003C102.829 43.5003 102.829 43.5003 102.828 43.5003C102.828 43.5003 102.827 43.5003 102.827 43.5002C102.825 43.5002 102.823 43.5001 102.82 43.5001C102.814 43.4999 102.805 43.4997 102.793 43.4994C102.769 43.4989 102.733 43.498 102.685 43.4969C102.59 43.4947 102.449 43.4915 102.262 43.4874C101.89 43.4791 101.337 43.4674 100.616 43.4533C99.1756 43.4252 97.0644 43.3876 94.3812 43.3501C89.0148 43.275 81.3601 43.2 72.2047 43.2V45.2C81.3493 45.2 88.9946 45.2749 94.3532 45.3499C97.0325 45.3874 99.14 45.4248 100.577 45.4529C101.296 45.467 101.847 45.4787 102.218 45.4869C102.404 45.491 102.545 45.4942 102.639 45.4964C102.686 45.4975 102.721 45.4983 102.745 45.4989C102.757 45.4991 102.766 45.4994 102.772 45.4995C102.775 45.4996 102.777 45.4996 102.778 45.4997C102.779 45.4997 102.779 45.4997 102.78 45.4997C102.78 45.4997 102.78 45.4997 102.78 45.4997C102.78 45.4997 102.78 45.4997 102.805 44.5ZM71.2047 44.2C71.2047 73.9027 71.2047 124.607 72.4048 215.213L74.4046 215.187C73.2047 124.593 73.2047 73.8973 73.2047 44.2H71.2047ZM73.4047 215.2C73.4264 214.2 73.4263 214.2 73.4262 214.2C73.4261 214.2 73.4259 214.2 73.4256 214.2C73.4251 214.2 73.4245 214.2 73.4236 214.2C73.4218 214.2 73.4191 214.2 73.4156 214.2C73.4087 214.2 73.3984 214.2 73.3847 214.199C73.3573 214.199 73.3164 214.198 73.2622 214.197C73.1536 214.195 72.9913 214.192 72.7753 214.188C72.3435 214.181 71.6971 214.172 70.8375 214.163C69.1182 214.144 66.5459 214.125 63.1297 214.125C56.2974 214.125 46.09 214.2 32.5825 214.5L32.6269 216.5C46.1194 216.2 56.312 216.125 63.1297 216.125C66.5385 216.125 69.1036 216.144 70.8156 216.162C71.6716 216.172 72.3144 216.181 72.7426 216.188C72.9568 216.192 73.1173 216.195 73.2241 216.197C73.2775 216.198 73.3174 216.198 73.3439 216.199C73.3571 216.199 73.367 216.199 73.3735 216.2C73.3768 216.2 73.3792 216.2 73.3808 216.2C73.3816 216.2 73.3821 216.2 73.3825 216.2C73.3827 216.2 73.3828 216.2 73.3829 216.2C73.3829 216.2 73.383 216.2 73.4047 215.2ZM32.6047 215.5C33.6047 215.504 33.6047 215.504 33.6047 215.504C33.6047 215.503 33.6047 215.502 33.6047 215.501C33.6047 215.499 33.6047 215.496 33.6047 215.492C33.6048 215.484 33.6048 215.472 33.6049 215.455C33.605 215.422 33.6052 215.373 33.6055 215.308C33.6061 215.178 33.6068 214.983 33.6078 214.724C33.6098 214.206 33.6126 213.433 33.6158 212.412C33.6223 210.371 33.6305 207.339 33.6375 203.375C33.6516 195.448 33.6609 183.794 33.6422 168.886C33.6047 139.072 33.4547 96.2441 33.0047 44.1913L31.0047 44.2086C31.4547 96.2559 31.6047 139.078 31.6422 168.889C31.6609 183.794 31.6516 195.446 31.6375 203.372C31.6305 207.334 31.6223 210.366 31.6158 212.406C31.6126 213.426 31.6098 214.199 31.6078 214.716C31.6069 214.975 31.6061 215.17 31.6055 215.3C31.6053 215.365 31.6051 215.414 31.6049 215.447C31.6048 215.463 31.6048 215.475 31.6048 215.483C31.6047 215.487 31.6047 215.49 31.6047 215.493C31.6047 215.494 31.6047 215.494 31.6047 215.495C31.6047 215.495 31.6047 215.496 32.6047 215.5ZM31.995 43.2L1.09498 43.5L1.1144 45.5L32.0144 45.1999L31.995 43.2ZM135.179 109.9L134.179 109.9L134.179 109.904L135.179 109.9ZM251.279 109.6L252.279 109.607V109.6H251.279ZM193.079 217.8C182.424 217.8 173.615 215.526 166.374 211.058C159.134 206.591 153.39 199.886 148.937 190.906C140.008 172.9 136.329 145.874 136.179 109.896L134.179 109.904C134.329 145.926 137.999 173.35 147.146 191.794C151.73 201.039 157.705 208.059 165.324 212.76C172.943 217.461 182.134 219.8 193.079 219.8V217.8ZM136.179 109.9C136.179 79.7763 139.032 52.8789 147.606 33.5428C151.885 23.891 157.57 16.1678 164.997 10.8555C172.414 5.54951 181.636 2.6 193.079 2.6V0.599999C181.272 0.599999 171.631 3.65049 163.833 9.22886C156.044 14.8009 150.16 22.8465 145.777 32.7322C137.025 52.471 134.179 79.7237 134.179 109.9H136.179ZM193.079 2.6C204.692 2.6 214.015 5.31613 221.487 10.3199C228.962 15.3262 234.658 22.6722 238.931 32.0521C247.498 50.8541 250.279 77.6654 250.279 109.6H252.279C252.279 77.6345 249.51 50.4458 240.751 31.2229C236.363 21.5903 230.452 13.9175 222.599 8.65818C214.743 3.39637 205.015 0.599999 193.079 0.599999V2.6ZM250.279 109.593C249.979 151.119 245.174 178.195 235.709 194.869C230.993 203.178 225.127 208.89 218.082 212.535C211.026 216.187 202.721 217.8 193.079 217.8V219.8C202.937 219.8 211.582 218.151 219.001 214.312C226.431 210.467 232.565 204.46 237.449 195.856C247.184 178.705 251.979 151.181 252.279 109.607L250.279 109.593ZM193.679 188C196.248 188 198.5 187.004 200.348 184.456C202.14 181.986 203.541 178.076 204.637 172.26C206.831 160.606 207.879 140.793 207.879 108.1H205.879C205.879 140.807 204.827 160.444 202.671 171.89C201.591 177.624 200.256 181.177 198.729 183.282C197.258 185.309 195.61 186 193.679 186V188ZM207.879 108.1C207.879 79.4522 206.831 60.9122 204.56 49.517C203.425 43.8274 201.966 39.8078 200.099 37.1923C198.188 34.5166 195.836 33.3 193.079 33.3V35.3C195.122 35.3 196.894 36.1459 198.471 38.3545C200.091 40.6234 201.482 44.3101 202.598 49.908C204.827 61.0878 205.879 79.4477 205.879 108.1H207.879ZM193.079 33.3C190.064 33.3 187.616 34.7361 185.704 37.641C183.833 40.4853 182.445 44.7724 181.407 50.6253C179.327 62.3491 178.579 80.8082 178.579 107.8H180.579C180.579 80.7918 181.331 62.5009 183.376 50.9747C184.4 45.2026 185.731 41.2397 187.375 38.7402C188.98 36.3013 190.844 35.3 193.079 35.3V33.3ZM178.579 107.8C178.579 139.588 179.476 159.479 181.708 171.434C182.823 177.402 184.291 181.521 186.242 184.163C188.248 186.88 190.743 188 193.679 188V186C191.365 186 189.472 185.17 187.85 182.975C186.173 180.704 184.773 176.948 183.674 171.066C181.481 159.321 180.579 139.612 180.579 107.8H178.579ZM365.563 219.7L364.595 219.954L364.805 220.753L365.63 220.698L365.563 219.7ZM343.063 138.1L344.024 137.827L343.767 136.919L342.846 137.124L343.063 138.1ZM334.663 139.3L334.552 138.306L333.663 138.405V139.3H334.663ZM335.863 209.8V210.8H336.881L336.862 209.782L335.863 209.8ZM293.863 210.1L292.863 210.085L292.847 211.113L293.875 211.1L293.863 210.1ZM294.163 5.49998L293.985 4.5158L293.157 4.66499L293.163 5.50709L294.163 5.49998ZM377.563 125.5L377.011 124.666L376.393 125.074L376.604 125.784L377.563 125.5ZM407.863 216.4L407.958 217.395L409.219 217.274L408.808 216.076L407.863 216.4ZM334.663 111.1L333.663 111.118L333.681 112.162L334.724 112.098L334.663 111.1ZM333.763 36.7L333.652 35.7061L332.756 35.8057L332.763 36.7074L333.763 36.7ZM365.563 219.7C366.53 219.446 366.53 219.446 366.53 219.446C366.53 219.446 366.53 219.445 366.529 219.445C366.529 219.444 366.529 219.443 366.528 219.441C366.527 219.437 366.526 219.431 366.524 219.424C366.52 219.408 366.514 219.386 366.506 219.356C366.49 219.296 366.467 219.206 366.435 219.086C366.372 218.847 366.278 218.49 366.153 218.018C365.903 217.073 365.53 215.667 365.038 213.822C364.053 210.131 362.59 204.683 360.677 197.65C356.852 183.584 351.226 163.181 344.024 137.827L342.101 138.373C349.299 163.719 354.923 184.116 358.748 198.175C360.66 205.205 362.122 210.65 363.106 214.338C363.598 216.181 363.97 217.586 364.22 218.529C364.344 219.001 364.438 219.357 364.501 219.595C364.532 219.714 364.556 219.804 364.572 219.864C364.58 219.894 364.585 219.916 364.589 219.931C364.591 219.939 364.593 219.944 364.594 219.948C364.594 219.95 364.595 219.951 364.595 219.952C364.595 219.953 364.595 219.953 364.595 219.953C364.595 219.953 364.595 219.954 365.563 219.7ZM342.846 137.124C340.211 137.709 337.275 138.004 334.552 138.306L334.773 140.294C337.45 139.996 340.514 139.691 343.279 139.076L342.846 137.124ZM333.663 139.3C333.663 151.912 334.263 176.233 334.863 209.818L336.862 209.782C336.262 176.167 335.663 151.888 335.663 139.3H333.663ZM335.863 209.8C335.863 208.8 335.862 208.8 335.862 208.8C335.862 208.8 335.862 208.8 335.862 208.8C335.861 208.8 335.86 208.8 335.859 208.8C335.857 208.8 335.854 208.8 335.849 208.8C335.84 208.8 335.827 208.8 335.81 208.8C335.775 208.8 335.723 208.8 335.654 208.8C335.516 208.8 335.311 208.8 335.041 208.801C334.502 208.801 333.704 208.802 332.673 208.805C330.609 208.809 327.608 208.819 323.858 208.838C316.356 208.875 305.853 208.95 293.85 209.1L293.875 211.1C305.872 210.95 316.369 210.875 323.868 210.837C327.617 210.819 330.616 210.809 332.677 210.805C333.708 210.802 334.505 210.801 335.043 210.801C335.313 210.8 335.518 210.8 335.655 210.8C335.724 210.8 335.776 210.8 335.81 210.8C335.828 210.8 335.841 210.8 335.849 210.8C335.854 210.8 335.857 210.8 335.859 210.8C335.86 210.8 335.861 210.8 335.862 210.8C335.862 210.8 335.862 210.8 335.862 210.8C335.862 210.8 335.863 210.8 335.863 209.8ZM293.863 210.1C294.862 210.115 294.862 210.115 294.862 210.114C294.862 210.114 294.862 210.113 294.862 210.112C294.862 210.109 294.863 210.106 294.863 210.101C294.863 210.091 294.863 210.077 294.863 210.058C294.864 210.02 294.865 209.963 294.866 209.887C294.868 209.736 294.871 209.509 294.876 209.207C294.884 208.605 294.897 207.705 294.912 206.514C294.943 204.133 294.987 200.591 295.036 195.945C295.134 186.653 295.256 172.945 295.35 155.28C295.538 119.952 295.613 68.7975 295.162 5.49288L293.163 5.50709C293.612 68.8025 293.537 119.948 293.35 155.27C293.256 172.93 293.134 186.635 293.036 195.924C292.987 200.568 292.943 204.109 292.912 206.488C292.897 207.678 292.884 208.577 292.876 209.179C292.872 209.48 292.868 209.706 292.866 209.858C292.865 209.933 292.864 209.99 292.863 210.028C292.863 210.047 292.863 210.061 292.863 210.07C292.863 210.075 292.863 210.079 292.863 210.081C292.863 210.082 292.863 210.083 292.863 210.084C292.863 210.084 292.863 210.085 293.863 210.1ZM294.34 6.48417C309.307 3.79002 322.443 2.29998 334.063 2.29998V0.299985C322.282 0.299985 309.018 1.80994 293.985 4.5158L294.34 6.48417ZM334.063 2.29998C357.289 2.29998 374.238 8.55025 385.391 20.1796C396.55 31.8166 402.063 49.0024 402.063 71.2H404.063C404.063 48.6976 398.475 30.9334 386.834 18.7953C375.187 6.64973 357.636 0.299985 334.063 0.299985V2.29998ZM402.063 71.2C402.063 97.6215 392.586 114.38 377.011 124.666L378.114 126.334C394.339 115.62 404.063 98.1785 404.063 71.2H402.063ZM376.604 125.784C379.011 133.908 388.918 164.229 406.917 216.724L408.808 216.076C390.807 163.571 380.914 133.292 378.521 125.216L376.604 125.784ZM407.863 216.4C407.767 215.405 407.767 215.405 407.767 215.405C407.767 215.405 407.766 215.405 407.766 215.405C407.766 215.405 407.765 215.405 407.764 215.405C407.762 215.405 407.76 215.405 407.756 215.406C407.748 215.406 407.737 215.407 407.722 215.409C407.692 215.412 407.647 215.416 407.587 215.422C407.466 215.433 407.286 215.45 407.047 215.472C406.57 215.517 405.857 215.582 404.918 215.667C403.041 215.835 400.259 216.079 396.642 216.378C389.41 216.978 378.84 217.803 365.495 218.702L365.63 220.698C378.985 219.797 389.565 218.972 396.808 218.372C400.429 218.071 403.215 217.827 405.097 217.658C406.038 217.574 406.753 217.508 407.233 217.464C407.473 217.441 407.654 217.424 407.775 217.413C407.836 217.407 407.881 217.403 407.912 217.4C407.927 217.398 407.939 217.397 407.946 217.397C407.95 217.396 407.953 217.396 407.955 217.396C407.956 217.396 407.957 217.396 407.957 217.395C407.958 217.395 407.958 217.395 407.958 217.395C407.958 217.395 407.958 217.395 407.863 216.4ZM334.724 112.098C342.285 111.635 349.029 108.92 353.858 102.834C358.665 96.7775 361.463 87.5214 361.463 74.2H359.463C359.463 87.2786 356.71 96.0225 352.292 101.591C347.896 107.13 341.74 109.665 334.601 110.102L334.724 112.098ZM361.463 74.2C361.463 62.5802 359.732 52.9273 355.895 46.1451C352.017 39.2891 345.995 35.4 337.663 35.4V37.4C345.23 37.4 350.608 40.8609 354.155 47.1299C357.743 53.4727 359.463 62.7198 359.463 74.2H361.463ZM337.663 35.4C337.011 35.4 335.992 35.4795 335.172 35.5541C334.754 35.5921 334.375 35.63 334.1 35.6584C333.963 35.6726 333.851 35.6845 333.774 35.6929C333.735 35.697 333.705 35.7003 333.684 35.7026C333.674 35.7037 333.666 35.7046 333.661 35.7052C333.658 35.7055 333.656 35.7057 333.654 35.7058C333.654 35.7059 333.653 35.706 333.653 35.706C333.653 35.7061 333.652 35.7061 333.652 35.7061C333.652 35.7061 333.652 35.7061 333.652 35.7061C333.652 35.7061 333.652 35.7061 333.763 36.7C333.873 37.6939 333.873 37.6939 333.873 37.6939C333.873 37.6939 333.873 37.6939 333.873 37.6939C333.873 37.6939 333.873 37.6939 333.873 37.6938C333.873 37.6938 333.874 37.6938 333.875 37.6937C333.876 37.6936 333.877 37.6934 333.88 37.6931C333.885 37.6926 333.892 37.6918 333.902 37.6907C333.921 37.6885 333.95 37.6854 333.988 37.6814C334.063 37.6733 334.172 37.6617 334.306 37.6478C334.575 37.62 334.946 37.5829 335.353 37.5459C336.183 37.4705 337.114 37.4 337.663 37.4V35.4ZM332.763 36.7074C332.913 56.9601 333.138 75.5624 333.325 89.1013C333.419 95.8709 333.503 101.375 333.564 105.186C333.595 107.092 333.619 108.575 333.636 109.581C333.645 110.084 333.651 110.468 333.656 110.727C333.658 110.856 333.66 110.954 333.661 111.019C333.661 111.052 333.662 111.076 333.662 111.093C333.662 111.101 333.662 111.107 333.663 111.111C333.663 111.114 333.663 111.115 333.663 111.116C333.663 111.117 333.663 111.117 333.663 111.117C333.663 111.118 333.663 111.118 334.663 111.1C335.662 111.082 335.662 111.082 335.662 111.082C335.662 111.082 335.662 111.081 335.662 111.081C335.662 111.08 335.662 111.078 335.662 111.076C335.662 111.072 335.662 111.066 335.662 111.058C335.662 111.041 335.661 111.017 335.661 110.984C335.659 110.919 335.658 110.821 335.656 110.692C335.651 110.434 335.644 110.05 335.636 109.547C335.619 108.542 335.594 107.059 335.564 105.154C335.503 101.344 335.419 95.8416 335.325 89.0736C335.137 75.5376 334.912 56.9399 334.762 36.6926L332.763 36.7074ZM444.287 209.2L443.287 209.188L443.275 210.2H444.287V209.2ZM443.387 12.4L443.311 11.4028L442.373 11.4737L442.387 12.4148L443.387 12.4ZM483.287 10.6L484.251 10.3347L484.043 9.58076L483.262 9.6003L483.287 10.6ZM521.387 138.7L520.433 139.001L522.386 138.67L521.387 138.7ZM514.787 0.399996L514.85 -0.597973L513.714 -0.670491L513.789 0.465512L514.787 0.399996ZM551.987 0.999989L552.987 0.98512L552.972 -0.0128884L551.974 7.28743e-05L551.987 0.999989ZM556.187 215.5L556.332 216.489L557.206 216.361L557.186 215.478L556.187 215.5ZM518.087 219.1L517.131 219.393L517.364 220.153L518.156 220.098L518.087 219.1ZM478.787 91.6L479.742 91.3046L477.787 91.6111L478.787 91.6ZM482.987 209.8L482.95 210.799L484.046 210.84L483.985 209.744L482.987 209.8ZM444.287 209.2C445.287 209.212 445.287 209.212 445.287 209.211C445.287 209.211 445.287 209.21 445.287 209.208C445.287 209.206 445.287 209.203 445.287 209.198C445.287 209.189 445.287 209.175 445.287 209.157C445.288 209.12 445.288 209.065 445.289 208.992C445.291 208.847 445.293 208.628 445.296 208.339C445.302 207.759 445.311 206.893 445.322 205.749C445.343 203.459 445.371 200.053 445.399 195.584C445.455 186.648 445.512 173.465 445.512 156.475C445.512 122.496 445.287 73.2907 444.387 12.3852L442.387 12.4148C443.287 73.3093 443.512 122.504 443.512 156.475C443.512 173.46 443.455 186.639 443.399 195.572C443.371 200.038 443.343 203.443 443.322 205.73C443.311 206.874 443.303 207.739 443.296 208.317C443.293 208.607 443.291 208.824 443.289 208.97C443.288 209.043 443.288 209.097 443.287 209.134C443.287 209.152 443.287 209.165 443.287 209.174C443.287 209.179 443.287 209.182 443.287 209.185C443.287 209.186 443.287 209.187 443.287 209.187C443.287 209.188 443.287 209.188 444.287 209.2ZM443.387 12.4C443.462 13.3971 443.462 13.3971 443.462 13.3971C443.462 13.3971 443.462 13.3971 443.463 13.3971C443.463 13.3971 443.464 13.397 443.465 13.397C443.466 13.3968 443.469 13.3966 443.473 13.3963C443.481 13.3958 443.492 13.3949 443.507 13.3938C443.538 13.3915 443.583 13.3881 443.644 13.3837C443.766 13.3748 443.947 13.3617 444.187 13.3448C444.667 13.3109 445.38 13.2618 446.311 13.201C448.173 13.0793 450.907 12.9108 454.39 12.7235C461.357 12.349 471.323 11.8994 483.312 11.5997L483.262 9.6003C471.251 9.90057 461.266 10.351 454.283 10.7264C450.791 10.9141 448.05 11.0831 446.181 11.2052C445.246 11.2663 444.53 11.3156 444.046 11.3497C443.805 11.3668 443.621 11.38 443.498 11.389C443.437 11.3935 443.39 11.397 443.359 11.3993C443.343 11.4004 443.332 11.4013 443.324 11.4019C443.32 11.4022 443.317 11.4024 443.315 11.4026C443.314 11.4027 443.313 11.4027 443.312 11.4028C443.312 11.4028 443.312 11.4028 443.312 11.4028C443.312 11.4028 443.311 11.4028 443.387 12.4ZM483.287 10.6C482.323 10.8653 482.323 10.8655 482.323 10.866C482.323 10.8664 482.323 10.8671 482.323 10.8679C482.324 10.8697 482.324 10.8723 482.325 10.8758C482.327 10.8828 482.33 10.8932 482.334 10.907C482.342 10.9346 482.353 10.976 482.368 11.0308C482.398 11.1405 482.444 11.3043 482.504 11.5209C482.624 11.9541 482.802 12.5986 483.038 13.444C483.508 15.1349 484.206 17.6297 485.113 20.8465C486.928 27.28 489.582 36.6013 492.939 48.154C499.653 71.2593 509.18 103.292 520.433 139.001L522.34 138.399C511.093 102.708 501.57 70.6907 494.86 47.5959C491.504 36.0487 488.852 26.7325 487.038 20.3035C486.132 17.089 485.435 14.5964 484.964 12.9075C484.729 12.0631 484.551 11.4197 484.431 10.9875C484.371 10.7714 484.326 10.6081 484.296 10.4988C484.281 10.4442 484.27 10.4031 484.262 10.3757C484.258 10.362 484.256 10.3517 484.254 10.3449C484.253 10.3415 484.252 10.3389 484.252 10.3372C484.251 10.3364 484.251 10.3357 484.251 10.3353C484.251 10.3349 484.251 10.3347 483.287 10.6ZM522.386 138.67C521.486 108.963 519.686 59.75 515.785 0.334481L513.789 0.465512C517.688 59.85 519.487 109.037 520.387 138.73L522.386 138.67ZM514.787 0.399996C514.723 1.39797 514.723 1.39797 514.723 1.39798C514.723 1.39799 514.724 1.39801 514.724 1.39802C514.724 1.39805 514.725 1.3981 514.726 1.39816C514.728 1.39828 514.731 1.39845 514.734 1.39868C514.742 1.39913 514.752 1.39979 514.766 1.40066C514.794 1.4024 514.836 1.40494 514.891 1.40824C515.001 1.41484 515.165 1.42444 515.382 1.43653C515.815 1.46071 516.459 1.49483 517.303 1.53481C518.992 1.61477 521.482 1.71813 524.695 1.81206C531.12 1.99993 540.434 2.1501 552 1.9999L551.974 7.28743e-05C540.439 0.14987 531.153 4.87625e-05 524.753 -0.187082C521.554 -0.280646 519.075 -0.383533 517.398 -0.462949C516.56 -0.502656 515.921 -0.536495 515.493 -0.560366C515.279 -0.572301 515.118 -0.581745 515.01 -0.588183C514.957 -0.591403 514.916 -0.593871 514.89 -0.595524C514.876 -0.59635 514.866 -0.596973 514.86 -0.597384C514.856 -0.597589 514.854 -0.597742 514.853 -0.59784C514.852 -0.597889 514.851 -0.597925 514.851 -0.597947C514.851 -0.597958 514.851 -0.597965 514.85 -0.59797C514.85 -0.597973 514.85 -0.597973 514.787 0.399996ZM551.987 0.999989C550.987 1.01486 550.987 1.01517 550.987 1.01579C550.987 1.01641 550.987 1.01734 550.987 1.01857C550.987 1.02104 550.987 1.02474 550.987 1.02967C550.987 1.03952 550.987 1.05429 550.988 1.07396C550.988 1.11329 550.989 1.17222 550.99 1.25064C550.993 1.40748 550.996 1.64229 551.001 1.95422C551.011 2.57808 551.025 3.51044 551.044 4.74456C551.083 7.2128 551.142 10.8881 551.221 15.7165C551.381 25.3733 551.624 39.6427 551.962 58.0933C552.637 94.9945 553.687 148.621 555.187 215.522L557.186 215.478C555.687 148.579 554.637 94.9555 553.962 58.0567C553.624 39.6073 553.38 25.3392 553.221 15.6835C553.141 10.8556 553.083 7.18092 553.044 4.71323C553.025 3.47938 553.01 2.54729 553.001 1.92369C552.996 1.61189 552.993 1.37722 552.99 1.22051C552.989 1.14215 552.988 1.08329 552.987 1.04402C552.987 1.02439 552.987 1.00966 552.987 0.999835C552.987 0.994924 552.987 0.991241 552.987 0.988788C552.987 0.987562 552.987 0.986645 552.987 0.986031C552.987 0.985422 552.987 0.98512 551.987 0.999989ZM556.187 215.5C556.042 214.511 556.042 214.511 556.042 214.511C556.042 214.511 556.042 214.511 556.042 214.511C556.041 214.511 556.041 214.511 556.04 214.511C556.039 214.511 556.037 214.511 556.034 214.512C556.029 214.512 556.02 214.514 556.008 214.515C555.985 214.519 555.95 214.524 555.902 214.53C555.808 214.544 555.664 214.564 555.473 214.59C555.089 214.642 554.511 214.719 553.736 214.817C552.186 215.013 549.849 215.294 546.705 215.631C540.418 216.304 530.905 217.203 518.017 218.102L518.156 220.098C531.068 219.197 540.606 218.296 546.918 217.619C550.075 217.281 552.425 216.999 553.987 216.801C554.769 216.703 555.353 216.625 555.743 216.572C555.938 216.545 556.084 216.525 556.182 216.511C556.231 216.504 556.268 216.499 556.293 216.495C556.305 216.493 556.315 216.492 556.321 216.491C556.325 216.49 556.327 216.49 556.329 216.49C556.33 216.49 556.33 216.49 556.331 216.49C556.331 216.49 556.331 216.49 556.331 216.49C556.331 216.489 556.332 216.489 556.187 215.5ZM518.087 219.1C519.043 218.807 519.043 218.807 519.043 218.806C519.042 218.806 519.042 218.805 519.042 218.804C519.042 218.803 519.041 218.801 519.04 218.798C519.038 218.792 519.035 218.783 519.032 218.771C519.024 218.747 519.014 218.711 518.999 218.664C518.97 218.569 518.926 218.427 518.868 218.238C518.753 217.861 518.58 217.297 518.351 216.552C517.893 215.061 517.212 212.844 516.319 209.938C514.533 204.125 511.899 195.556 508.505 184.531C501.717 162.48 491.892 130.605 479.742 91.3046L477.831 91.8954C489.981 131.195 499.806 163.07 506.593 185.119C509.987 196.144 512.622 204.713 514.407 210.525C515.3 213.431 515.981 215.648 516.439 217.139C516.668 217.884 516.841 218.448 516.956 218.825C517.014 219.014 517.058 219.156 517.087 219.251C517.101 219.298 517.112 219.334 517.12 219.358C517.123 219.369 517.126 219.378 517.128 219.384C517.129 219.387 517.13 219.39 517.13 219.391C517.13 219.392 517.13 219.392 517.131 219.393C517.131 219.393 517.131 219.393 518.087 219.1ZM477.787 91.6111C478.087 118.626 479.287 161.541 481.988 209.856L483.985 209.744C481.286 161.459 480.086 118.574 479.787 91.5889L477.787 91.6111ZM482.987 209.8C483.024 208.801 483.024 208.801 483.023 208.801C483.023 208.801 483.023 208.801 483.023 208.801C483.022 208.801 483.022 208.801 483.021 208.801C483.019 208.8 483.016 208.8 483.012 208.8C483.003 208.8 482.992 208.8 482.976 208.799C482.944 208.798 482.897 208.796 482.835 208.794C482.71 208.789 482.524 208.783 482.28 208.775C481.792 208.758 481.07 208.735 480.134 208.707C478.261 208.65 475.53 208.575 472.096 208.5C465.228 208.35 455.545 208.2 444.287 208.2V210.2C455.528 210.2 465.196 210.35 472.052 210.5C475.481 210.575 478.206 210.65 480.074 210.706C481.008 210.734 481.727 210.757 482.213 210.774C482.456 210.782 482.64 210.788 482.764 210.793C482.826 210.795 482.872 210.796 482.903 210.798C482.919 210.798 482.931 210.799 482.938 210.799C482.942 210.799 482.945 210.799 482.947 210.799C482.948 210.799 482.949 210.799 482.949 210.799C482.949 210.799 482.949 210.799 482.95 210.799C482.95 210.799 482.95 210.799 482.987 209.8ZM603.521 213.1L602.521 213.107L602.528 214.087L603.508 214.1L603.521 213.1ZM601.121 5.8L601.109 4.80007L600.106 4.81245L600.121 5.81488L601.121 5.8ZM686.021 4.6L687.021 4.61817L687.04 3.58476L686.006 3.60011L686.021 4.6ZM686.321 44.5L686.333 45.4999L687.347 45.4876L687.321 44.4744L686.321 44.5ZM641.621 45.4L641.591 44.4004L640.637 44.4289L640.621 45.3836L641.621 45.4ZM641.921 94L640.921 94.0198L640.941 95H641.921V94ZM680.321 93.7H681.321V92.6733L680.295 92.7003L680.321 93.7ZM680.621 131.8L680.603 132.8L681.635 132.819L681.621 131.786L680.621 131.8ZM642.521 131.5V130.5H641.499L641.521 131.522L642.521 131.5ZM643.721 175.3L642.722 175.338L642.756 176.236L643.652 176.298L643.721 175.3ZM687.221 177.1L688.22 177.146L688.268 176.124L687.244 176.1L687.221 177.1ZM686.621 214.9L686.59 215.9L687.621 215.932V214.9H686.621ZM603.521 213.1C604.521 213.093 604.521 213.093 604.521 213.092C604.521 213.091 604.521 213.09 604.521 213.089C604.521 213.086 604.521 213.082 604.521 213.077C604.521 213.067 604.521 213.051 604.521 213.03C604.52 212.988 604.52 212.925 604.519 212.841C604.518 212.674 604.516 212.424 604.514 212.093C604.509 211.43 604.502 210.443 604.492 209.144C604.472 206.545 604.441 202.697 604.399 197.702C604.315 187.713 604.184 173.134 603.996 154.777C603.621 118.064 603.021 66.237 602.121 5.78511L600.121 5.81488C601.021 66.263 601.621 118.086 601.996 154.798C602.184 173.153 602.315 187.731 602.399 197.719C602.441 202.714 602.472 206.561 602.492 209.159C602.502 210.458 602.509 211.445 602.514 212.107C602.516 212.439 602.518 212.688 602.519 212.856C602.52 212.939 602.52 213.002 602.521 213.044C602.521 213.065 602.521 213.081 602.521 213.091C602.521 213.096 602.521 213.1 602.521 213.103C602.521 213.104 602.521 213.105 602.521 213.106C602.521 213.107 602.521 213.107 603.521 213.1ZM601.121 5.8C601.133 6.79992 601.134 6.79992 601.134 6.79992C601.134 6.79992 601.134 6.79991 601.135 6.79991C601.135 6.7999 601.136 6.79989 601.138 6.79987C601.141 6.79983 601.145 6.79977 601.151 6.7997C601.163 6.79955 601.181 6.79933 601.205 6.79903C601.253 6.79844 601.325 6.79754 601.421 6.79633C601.614 6.79391 601.905 6.79025 602.296 6.78527C603.079 6.77531 604.265 6.76007 605.878 6.73897C609.103 6.69678 614.035 6.63115 620.86 6.5374C634.51 6.34989 655.736 6.04988 686.036 5.59989L686.006 3.60011C655.707 4.0501 634.482 4.35009 620.832 4.53759C614.008 4.63134 609.077 4.69696 605.852 4.73914C604.239 4.76024 603.054 4.77547 602.271 4.78543C601.88 4.79041 601.589 4.79407 601.396 4.79649C601.3 4.7977 601.228 4.79859 601.18 4.79919C601.156 4.79948 601.138 4.79971 601.127 4.79985C601.121 4.79993 601.116 4.79998 601.113 4.80002C601.112 4.80004 601.111 4.80005 601.11 4.80006C601.109 4.80007 601.109 4.80007 601.109 4.80007C601.109 4.80007 601.109 4.80007 601.121 5.8ZM686.021 4.6C685.021 4.58182 685.021 4.58191 685.021 4.58207C685.021 4.5822 685.021 4.58242 685.021 4.58269C685.021 4.58324 685.021 4.58403 685.021 4.58508C685.021 4.58717 685.021 4.59026 685.021 4.59435C685.021 4.60254 685.021 4.61471 685.02 4.63084C685.02 4.66311 685.019 4.71119 685.018 4.77481C685.016 4.90204 685.013 5.0914 685.009 5.34053C685.002 5.8388 684.993 6.57619 684.984 7.53394C684.965 9.44944 684.946 12.2465 684.946 15.775C684.946 22.8319 685.021 32.8156 685.321 44.5256L687.321 44.4744C687.021 32.7844 686.946 22.8181 686.946 15.775C686.946 12.2535 686.965 9.46305 686.984 7.55355C686.993 6.5988 687.002 5.86432 687.009 5.36883C687.013 5.12109 687.016 4.9331 687.018 4.80721C687.019 4.74427 687.02 4.69685 687.02 4.66524C687.02 4.64944 687.021 4.63759 687.021 4.62974C687.021 4.62581 687.021 4.62288 687.021 4.62095C687.021 4.61998 687.021 4.61927 687.021 4.61881C687.021 4.61858 687.021 4.61842 687.021 4.6183C687.021 4.61821 687.021 4.61817 686.021 4.6ZM686.321 44.5C686.309 43.5001 686.309 43.5001 686.309 43.5001C686.308 43.5001 686.308 43.5001 686.308 43.5001C686.307 43.5001 686.306 43.5001 686.304 43.5001C686.301 43.5002 686.297 43.5002 686.291 43.5003C686.279 43.5004 686.261 43.5007 686.237 43.501C686.19 43.5015 686.12 43.5024 686.027 43.5036C685.842 43.5059 685.568 43.5095 685.212 43.5141C684.499 43.5235 683.46 43.5376 682.149 43.5564C679.528 43.5939 675.824 43.6501 671.491 43.7251C662.827 43.8752 651.647 44.1003 641.591 44.4004L641.651 46.3995C651.695 46.0997 662.865 45.8748 671.526 45.7248C675.856 45.6499 679.558 45.5936 682.178 45.5561C683.487 45.5374 684.526 45.5233 685.238 45.514C685.594 45.5093 685.868 45.5058 686.053 45.5034C686.145 45.5023 686.215 45.5014 686.262 45.5008C686.286 45.5005 686.304 45.5003 686.315 45.5001C686.321 45.5001 686.326 45.5 686.329 45.5C686.33 45.5 686.331 45.4999 686.332 45.4999C686.333 45.4999 686.333 45.4999 686.333 45.4999C686.333 45.4999 686.333 45.4999 686.321 44.5ZM641.621 45.4C640.621 45.3836 640.621 45.3837 640.621 45.3839C640.621 45.384 640.621 45.3843 640.621 45.3846C640.621 45.3851 640.621 45.386 640.621 45.3872C640.621 45.3895 640.621 45.3929 640.621 45.3974C640.621 45.4065 640.621 45.42 640.62 45.438C640.62 45.4738 640.619 45.5274 640.618 45.5984C640.616 45.7405 640.613 45.9525 640.609 46.2329C640.602 46.7938 640.593 47.6283 640.584 48.7242C640.565 50.916 640.546 54.1533 640.546 58.3375C640.546 66.7059 640.621 78.8626 640.921 94.0198L642.921 93.9802C642.621 78.8374 642.546 66.6941 642.546 58.3375C642.546 54.1592 642.565 50.9277 642.584 48.7414C642.593 47.6482 642.602 46.8163 642.609 46.2581C642.613 45.9789 642.616 45.7682 642.618 45.6274C642.619 45.557 642.62 45.5041 642.62 45.4689C642.62 45.4512 642.621 45.438 642.621 45.4293C642.621 45.4249 642.621 45.4216 642.621 45.4195C642.621 45.4184 642.621 45.4176 642.621 45.4171C642.621 45.4168 642.621 45.4167 642.621 45.4165C642.621 45.4164 642.621 45.4164 641.621 45.4ZM641.921 95C644.304 95 657.53 95.3001 680.347 94.6996L680.295 92.7003C657.512 93.2999 644.339 93 641.921 93V95ZM680.321 93.7C679.321 93.7 679.321 93.7001 679.321 93.7002C679.321 93.7003 679.321 93.7005 679.321 93.7008C679.321 93.7013 679.321 93.702 679.321 93.703C679.321 93.7049 679.321 93.7079 679.321 93.7118C679.321 93.7195 679.321 93.7311 679.321 93.7466C679.321 93.7774 679.321 93.8235 679.321 93.8846C679.321 94.0067 679.321 94.1885 679.322 94.4278C679.322 94.9063 679.323 95.6146 679.326 96.5338C679.33 98.3722 679.34 101.054 679.359 104.431C679.396 111.183 679.471 120.71 679.621 131.814L681.621 131.786C681.471 120.69 681.396 111.167 681.359 104.419C681.34 101.046 681.33 98.3653 681.326 96.5287C681.323 95.6104 681.322 94.903 681.322 94.4253C681.321 94.1865 681.321 94.005 681.321 93.8834C681.321 93.8225 681.321 93.7766 681.321 93.746C681.321 93.7307 681.321 93.7191 681.321 93.7115C681.321 93.7076 681.321 93.7047 681.321 93.7028C681.321 93.7019 681.321 93.7012 681.321 93.7007C681.321 93.7004 681.321 93.7003 681.321 93.7002C681.321 93.7 681.321 93.7 680.321 93.7ZM680.621 131.8C680.639 130.8 680.639 130.8 680.639 130.8C680.639 130.8 680.639 130.8 680.638 130.8C680.638 130.8 680.637 130.8 680.636 130.8C680.634 130.8 680.631 130.8 680.627 130.8C680.619 130.8 680.607 130.8 680.591 130.799C680.559 130.799 680.511 130.798 680.448 130.797C680.322 130.795 680.134 130.791 679.887 130.787C679.393 130.779 678.663 130.767 677.72 130.753C675.835 130.725 673.096 130.688 669.682 130.65C662.854 130.575 653.326 130.5 642.521 130.5V132.5C653.317 132.5 662.838 132.575 669.66 132.65C673.071 132.687 675.807 132.725 677.691 132.753C678.632 132.767 679.36 132.779 679.853 132.787C680.1 132.791 680.287 132.794 680.413 132.796C680.476 132.798 680.524 132.798 680.555 132.799C680.571 132.799 680.583 132.799 680.591 132.8C680.595 132.8 680.598 132.8 680.6 132.8C680.601 132.8 680.602 132.8 680.602 132.8C680.602 132.8 680.603 132.8 680.603 132.8C680.603 132.8 680.603 132.8 680.621 131.8ZM641.521 131.522C641.821 145.02 642.121 159.729 642.722 175.338L644.72 175.262C644.121 159.671 643.821 144.98 643.521 131.478L641.521 131.522ZM643.721 175.3C643.652 176.298 643.652 176.298 643.653 176.298C643.653 176.298 643.653 176.298 643.653 176.298C643.654 176.298 643.655 176.298 643.656 176.298C643.658 176.298 643.661 176.298 643.666 176.299C643.674 176.299 643.687 176.3 643.704 176.301C643.738 176.303 643.789 176.307 643.856 176.311C643.991 176.32 644.191 176.334 644.455 176.351C644.984 176.385 645.767 176.434 646.788 176.495C648.83 176.617 651.824 176.786 655.634 176.974C663.254 177.349 674.138 177.8 687.198 178.1L687.244 176.1C674.204 175.8 663.338 175.351 655.733 174.976C651.93 174.789 648.943 174.62 646.907 174.499C645.889 174.438 645.109 174.389 644.584 174.355C644.321 174.338 644.123 174.325 643.99 174.316C643.923 174.311 643.873 174.308 643.84 174.306C643.823 174.305 643.81 174.304 643.802 174.303C643.798 174.303 643.795 174.303 643.793 174.303C643.792 174.302 643.791 174.302 643.791 174.302C643.79 174.302 643.79 174.302 643.79 174.302C643.79 174.302 643.79 174.302 643.721 175.3ZM687.221 177.1C686.222 177.054 686.222 177.054 686.222 177.054C686.222 177.054 686.222 177.054 686.222 177.054C686.222 177.055 686.222 177.055 686.222 177.056C686.222 177.058 686.222 177.06 686.222 177.064C686.221 177.07 686.221 177.08 686.22 177.093C686.219 177.118 686.218 177.157 686.215 177.207C686.211 177.309 686.204 177.46 686.196 177.662C686.18 178.065 686.156 178.668 686.128 179.47C686.072 181.072 685.996 183.466 685.921 186.639C685.771 192.984 685.621 202.442 685.621 214.9H687.621C687.621 202.458 687.771 193.016 687.921 186.686C687.996 183.521 688.071 181.134 688.127 179.54C688.155 178.743 688.178 178.143 688.194 177.744C688.203 177.544 688.209 177.394 688.213 177.295C688.216 177.245 688.217 177.208 688.218 177.183C688.219 177.17 688.219 177.161 688.22 177.155C688.22 177.152 688.22 177.15 688.22 177.148C688.22 177.148 688.22 177.147 688.22 177.147C688.22 177.147 688.22 177.147 688.22 177.147C688.22 177.146 688.22 177.146 687.221 177.1ZM686.621 214.9C686.653 213.9 686.652 213.9 686.652 213.9C686.652 213.9 686.651 213.9 686.651 213.9C686.65 213.9 686.648 213.9 686.646 213.9C686.641 213.9 686.634 213.9 686.625 213.9C686.606 213.899 686.578 213.898 686.542 213.897C686.468 213.895 686.358 213.891 686.213 213.887C685.923 213.878 685.491 213.865 684.926 213.848C683.796 213.814 682.131 213.764 679.993 213.704C675.717 213.582 669.547 213.413 661.971 213.225C646.818 212.85 626.039 212.4 603.534 212.1L603.508 214.1C626.003 214.4 646.774 214.85 661.921 215.225C669.495 215.412 675.662 215.581 679.936 215.703C682.073 215.764 683.737 215.813 684.866 215.847C685.431 215.864 685.862 215.877 686.151 215.886C686.296 215.89 686.406 215.894 686.479 215.896C686.516 215.897 686.544 215.898 686.562 215.899C686.571 215.899 686.578 215.899 686.583 215.899C686.585 215.899 686.587 215.899 686.588 215.899C686.588 215.899 686.589 215.899 686.589 215.899C686.589 215.9 686.59 215.9 686.621 214.9ZM731.987 214.3L730.987 214.297L730.983 215.311L731.998 215.3L731.987 214.3ZM730.787 5.8V4.8H729.774L729.787 5.81285L730.787 5.8ZM771.587 5.49998L772.587 5.49401L772.581 4.48875L771.575 4.50005L771.587 5.49998ZM773.087 214.3L773.066 215.3L774.095 215.321L774.087 214.292L773.087 214.3ZM731.987 214.3C732.987 214.303 732.987 214.303 732.987 214.302C732.987 214.301 732.987 214.3 732.987 214.299C732.987 214.296 732.987 214.292 732.987 214.286C732.987 214.275 732.987 214.258 732.987 214.236C732.987 214.192 732.987 214.125 732.988 214.036C732.988 213.859 732.989 213.594 732.99 213.243C732.992 212.542 732.994 211.499 732.997 210.129C733.002 207.391 733.008 203.349 733.01 198.133C733.015 187.703 733.005 172.58 732.949 153.81C732.837 116.27 732.537 64.1412 731.787 5.78715L729.787 5.81285C730.537 64.1588 730.837 116.28 730.949 153.815C731.005 172.583 731.015 187.704 731.01 198.132C731.008 203.347 731.002 207.388 730.997 210.126C730.994 211.494 730.992 212.537 730.99 213.238C730.989 213.588 730.988 213.853 730.988 214.03C730.987 214.119 730.987 214.185 730.987 214.23C730.987 214.252 730.987 214.269 730.987 214.28C730.987 214.286 730.987 214.29 730.987 214.293C730.987 214.294 730.987 214.295 730.987 214.296C730.987 214.296 730.987 214.297 731.987 214.3ZM730.787 5.8C730.787 6.8 730.787 6.8 730.787 6.8C730.787 6.8 730.787 6.8 730.787 6.8C730.788 6.8 730.789 6.8 730.789 6.8C730.791 6.8 730.794 6.8 730.797 6.8C730.804 6.8 730.815 6.79999 730.828 6.79999C730.856 6.79998 730.897 6.79996 730.952 6.79992C731.062 6.79985 731.227 6.7997 731.446 6.79941C731.884 6.79882 732.54 6.79765 733.41 6.79531C735.15 6.79062 737.747 6.78124 741.18 6.76248C748.044 6.72497 758.246 6.64995 771.598 6.49992L771.575 4.50005C758.227 4.65003 748.029 4.72502 741.169 4.76251C737.738 4.78126 735.142 4.79063 733.404 4.79531C732.535 4.79766 731.881 4.79883 731.443 4.79941C731.225 4.79971 731.06 4.79985 730.951 4.79993C730.896 4.79996 730.855 4.79998 730.828 4.79999C730.814 4.79999 730.804 4.8 730.797 4.8C730.793 4.8 730.791 4.8 730.789 4.8C730.788 4.8 730.788 4.8 730.787 4.8C730.787 4.8 730.787 4.8 730.787 4.8C730.787 4.8 730.787 4.8 730.787 5.8ZM771.587 5.49998C770.587 5.50595 770.587 5.50634 770.587 5.50711C770.587 5.50787 770.587 5.50902 770.587 5.51055C770.587 5.51362 770.587 5.51821 770.587 5.52432C770.587 5.53655 770.587 5.55487 770.587 5.57923C770.587 5.62795 770.588 5.70086 770.588 5.7976C770.59 5.99107 770.591 6.27986 770.594 6.66114C770.598 7.42369 770.605 8.55619 770.614 10.036C770.632 12.9956 770.659 17.3445 770.695 22.9016C770.765 34.0158 770.868 49.9629 770.999 69.2943C771.262 107.957 771.637 160.158 772.087 214.308L774.087 214.292C773.637 160.142 773.262 107.943 772.999 69.2807C772.868 49.9496 772.765 34.0029 772.695 22.889C772.659 17.332 772.632 12.9832 772.614 10.0237C772.605 8.54397 772.598 7.41153 772.594 6.64904C772.591 6.26779 772.59 5.97903 772.588 5.78558C772.588 5.68886 772.587 5.61596 772.587 5.56725C772.587 5.54289 772.587 5.52458 772.587 5.51236C772.587 5.50625 772.587 5.50166 772.587 5.4986C772.587 5.49707 772.587 5.49593 772.587 5.49516C772.587 5.4944 772.587 5.49401 771.587 5.49998ZM773.087 214.3C773.108 213.3 773.107 213.3 773.107 213.3C773.107 213.3 773.107 213.3 773.107 213.3C773.106 213.3 773.106 213.3 773.105 213.3C773.103 213.3 773.1 213.3 773.097 213.3C773.089 213.3 773.079 213.3 773.064 213.299C773.036 213.299 772.994 213.298 772.937 213.297C772.825 213.295 772.656 213.292 772.433 213.288C771.986 213.28 771.318 213.27 770.433 213.258C768.663 213.234 766.026 213.206 762.555 213.188C755.612 213.15 745.331 213.15 731.975 213.3L731.998 215.3C745.342 215.15 755.612 215.15 762.544 215.187C766.01 215.206 768.642 215.234 770.406 215.258C771.289 215.269 771.954 215.28 772.399 215.288C772.621 215.291 772.788 215.294 772.9 215.297C772.955 215.298 772.997 215.298 773.025 215.299C773.039 215.299 773.049 215.299 773.056 215.3C773.059 215.3 773.062 215.3 773.063 215.3C773.064 215.3 773.065 215.3 773.065 215.3C773.066 215.3 773.066 215.3 773.066 215.3C773.066 215.3 773.066 215.3 773.087 214.3ZM934.496 109.3L935.496 109.3L935.496 109.296L934.496 109.3ZM817.796 109.6L816.796 109.596V109.6H817.796ZM876.296 4.69999C886.741 4.69999 895.467 6.73651 902.698 10.8593C909.924 14.9794 915.725 21.2216 920.263 29.745C929.367 46.841 933.346 73.0294 933.496 109.304L935.496 109.296C935.346 72.9706 931.376 46.359 922.029 28.805C917.342 20.0034 911.293 13.4581 903.688 9.1219C896.088 4.78847 887.001 2.69999 876.296 2.69999V4.69999ZM933.496 109.3C933.496 148.552 928.245 174.802 918.487 191.214C913.62 199.399 907.637 205.129 900.618 208.821C893.593 212.516 885.474 214.2 876.296 214.2V216.2C885.718 216.2 894.174 214.471 901.549 210.591C908.931 206.708 915.172 200.701 920.206 192.236C930.247 175.348 935.496 148.648 935.496 109.3H933.496ZM876.296 214.2C865.614 214.2 856.734 212.271 849.409 208.284C842.092 204.302 836.26 198.229 831.726 189.825C822.629 172.961 818.796 146.782 818.796 109.6H816.796C816.796 146.818 820.614 173.439 829.966 190.775C834.657 199.471 840.75 205.848 848.452 210.041C856.146 214.229 865.378 216.2 876.296 216.2V214.2ZM818.796 109.604C818.946 72.276 823.002 46.0186 832.175 29.1145C836.747 20.689 842.582 14.6055 849.834 10.6185C857.094 6.62739 865.843 4.69999 876.296 4.69999V2.69999C865.6 2.69999 856.498 4.67259 848.871 8.86587C841.236 13.0632 835.145 19.4485 830.417 28.1605C820.991 45.5314 816.946 72.224 816.796 109.596L818.796 109.604ZM875.696 35.4C872.996 35.4 870.652 36.399 868.74 38.9226C866.884 41.3721 865.461 45.2209 864.364 50.8721C862.169 62.1922 861.196 81.2593 861.196 112.3H863.196C863.196 81.2407 864.174 62.3578 866.328 51.2529C867.407 45.6916 868.759 42.2091 870.334 40.1305C871.853 38.126 873.596 37.4 875.696 37.4V35.4ZM861.196 112.3C861.196 142.747 862.543 160.63 865.011 170.921C866.244 176.063 867.785 179.434 869.682 181.526C871.631 183.676 873.887 184.4 876.296 184.4V182.4C874.356 182.4 872.674 181.849 871.164 180.183C869.601 178.46 868.16 175.475 866.956 170.454C864.549 160.42 863.196 142.753 863.196 112.3H861.196ZM876.296 184.4C878.683 184.4 880.924 183.747 882.856 181.666C884.733 179.644 886.236 176.358 887.432 171.292C889.824 161.152 891.096 143.343 891.096 112.6H889.096C889.096 143.357 887.818 160.948 885.485 170.833C884.318 175.779 882.916 178.662 881.39 180.306C879.918 181.89 878.26 182.4 876.296 182.4V184.4ZM891.096 112.6C891.096 81.2573 889.974 62.1091 887.587 50.7813C886.395 45.1241 884.864 41.2909 882.901 38.8606C880.883 36.3632 878.45 35.4 875.696 35.4V37.4C877.892 37.4 879.734 38.1243 881.345 40.1175C883.009 42.1779 884.46 45.6384 885.63 51.1937C887.968 62.2908 889.096 81.2426 889.096 112.6H891.096ZM973.766 139.3L973.802 138.301L972.856 138.266L972.77 139.209L973.766 139.3ZM1015.77 140.2L1016.76 140.285L1016.85 139.213L1015.78 139.2L1015.77 140.2ZM1009.17 121.3L1008.59 122.115L1008.59 122.115L1009.17 121.3ZM1078.77 79L1078.68 79.996L1079.66 80.0837L1079.76 79.1059L1078.77 79ZM1037.97 76.6L1036.97 76.4843L1036.85 77.568L1037.94 77.5996L1037.97 76.6ZM1044.87 98.2L1045.42 97.3707L1045.42 97.3696L1044.87 98.2ZM1027.47 217.5C1006.38 217.5 992.135 210.908 983.676 198.038C975.165 185.088 972.368 165.57 974.761 139.391L972.77 139.209C970.363 165.53 973.116 185.612 982.005 199.137C990.946 212.742 1005.95 219.5 1027.47 219.5V217.5ZM973.766 139.3C973.729 140.299 973.729 140.299 973.73 140.299C973.73 140.299 973.73 140.299 973.73 140.299C973.731 140.299 973.731 140.299 973.732 140.299C973.735 140.3 973.738 140.3 973.742 140.3C973.75 140.3 973.762 140.301 973.778 140.301C973.81 140.302 973.858 140.304 973.922 140.306C974.049 140.311 974.24 140.317 974.491 140.326C974.992 140.343 975.737 140.367 976.711 140.398C978.658 140.459 981.519 140.543 985.177 140.637C992.494 140.825 1003 141.05 1015.75 141.2L1015.78 139.2C1003.03 139.05 992.537 138.825 985.229 138.638C981.575 138.544 978.717 138.46 976.773 138.399C975.802 138.368 975.058 138.344 974.558 138.327C974.308 138.318 974.119 138.312 973.992 138.307C973.929 138.305 973.881 138.304 973.849 138.302C973.834 138.302 973.822 138.301 973.814 138.301C973.81 138.301 973.807 138.301 973.805 138.301C973.804 138.301 973.803 138.301 973.803 138.301C973.802 138.301 973.802 138.301 973.802 138.301C973.802 138.301 973.802 138.301 973.766 139.3ZM1014.77 140.115C1013.42 155.889 1013.78 167.435 1015.85 175.074C1016.89 178.901 1018.38 181.832 1020.38 183.815C1022.4 185.824 1024.89 186.8 1027.77 186.8V184.8C1025.39 184.8 1023.42 184.014 1021.79 182.395C1020.13 180.75 1018.77 178.187 1017.78 174.551C1015.8 167.265 1015.41 156.011 1016.76 140.285L1014.77 140.115ZM1027.77 186.8C1029.77 186.8 1031.6 186.419 1033.2 185.507C1034.82 184.592 1036.13 183.183 1037.16 181.244C1039.2 177.415 1040.17 171.43 1040.17 162.7H1038.17C1038.17 171.37 1037.19 176.935 1035.4 180.306C1034.51 181.967 1033.45 183.07 1032.22 183.768C1030.98 184.468 1029.51 184.8 1027.77 184.8V186.8ZM1040.17 162.7C1040.17 155.644 1038.85 149.511 1034.33 142.898C1029.84 136.336 1022.22 129.354 1009.75 120.485L1008.59 122.115C1021.01 130.946 1028.39 137.764 1032.68 144.027C1036.93 150.239 1038.17 155.956 1038.17 162.7H1040.17ZM1009.75 120.485C996.328 110.944 987.377 101.451 981.771 91.0505C976.169 80.6568 973.866 69.2799 973.866 55.9H971.866C971.866 69.5201 974.213 81.2432 980.01 91.9995C985.804 102.749 995.004 112.456 1008.59 122.115L1009.75 120.485ZM973.866 55.9C973.866 36.7459 979.428 23.399 988.839 14.8268C998.267 6.23916 1011.71 2.29998 1027.77 2.29998V0.299985C1011.42 0.299985 997.414 4.31081 987.492 13.3482C977.553 22.401 971.866 36.3541 971.866 55.9H973.866ZM1027.77 2.29998C1047.32 2.29998 1061.06 8.94814 1069.3 21.681C1077.59 34.4858 1080.46 53.6349 1077.77 78.8941L1079.76 79.1059C1082.47 53.6651 1079.64 33.9642 1070.98 20.5939C1062.28 7.15184 1047.81 0.299985 1027.77 0.299985V2.29998ZM1078.77 79C1078.85 78.004 1078.85 78.004 1078.85 78.004C1078.85 78.0039 1078.85 78.0039 1078.85 78.0039C1078.85 78.0038 1078.85 78.0037 1078.85 78.0036C1078.85 78.0034 1078.84 78.0031 1078.84 78.0026C1078.83 78.0017 1078.82 78.0004 1078.8 77.9987C1078.76 77.9953 1078.7 77.9901 1078.62 77.9834C1078.47 77.9701 1078.24 77.9504 1077.95 77.9251C1077.36 77.8746 1076.49 77.8018 1075.38 77.7126C1073.17 77.5342 1070.01 77.2902 1066.2 77.0274C1058.58 76.5018 1048.36 75.9009 1037.99 75.6004L1037.94 77.5996C1048.27 77.8991 1058.45 78.4982 1066.06 79.0226C1069.86 79.2848 1073.02 79.5283 1075.22 79.7061C1076.32 79.7951 1077.19 79.8676 1077.78 79.9179C1078.07 79.943 1078.3 79.9626 1078.45 79.9758C1078.52 79.9825 1078.58 79.9875 1078.62 79.9909C1078.64 79.9926 1078.65 79.9939 1078.66 79.9947C1078.67 79.9952 1078.67 79.9955 1078.67 79.9957C1078.67 79.9958 1078.68 79.9959 1078.68 79.9959C1078.68 79.996 1078.68 79.996 1078.68 79.996C1078.68 79.996 1078.68 79.996 1078.77 79ZM1038.96 76.7157C1040.76 61.2257 1040.33 50.4121 1038.25 43.4266C1037.2 39.9249 1035.72 37.3156 1033.83 35.5753C1031.92 33.8166 1029.65 33 1027.17 33V35C1029.18 35 1030.96 35.6458 1032.48 37.0466C1034.02 38.4657 1035.35 40.7126 1036.33 43.9984C1038.3 50.5879 1038.77 61.0742 1036.97 76.4843L1038.96 76.7157ZM1027.17 33C1024.94 33 1022.99 33.6217 1021.33 34.833C1019.68 36.0362 1018.38 37.7819 1017.37 39.9544C1015.37 44.2764 1014.47 50.4498 1014.47 58H1016.47C1016.47 50.5502 1017.36 44.7236 1019.19 40.7956C1020.09 38.843 1021.2 37.4013 1022.51 36.4482C1023.8 35.5032 1025.34 35 1027.17 35V33ZM1014.47 58C1014.47 65.53 1016.17 71.9649 1020.8 78.4562C1025.41 84.9042 1032.88 91.3596 1044.31 99.0304L1045.42 97.3696C1034.05 89.7404 1026.82 83.4458 1022.43 77.2938C1018.07 71.1851 1016.47 65.17 1016.47 58H1014.47ZM1044.31 99.0293C1058.05 108.288 1067.21 116.962 1072.95 126.792C1078.69 136.607 1081.07 147.667 1081.07 161.8H1083.07C1083.07 147.433 1080.64 135.993 1074.68 125.783C1068.72 115.588 1059.29 106.712 1045.42 97.3707L1044.31 99.0293ZM1081.07 161.8C1081.07 182.475 1075.49 196.342 1066.12 205.055C1056.74 213.781 1043.38 217.5 1027.47 217.5V219.5C1043.65 219.5 1057.59 215.719 1067.48 206.52C1077.39 197.308 1083.07 182.825 1083.07 161.8H1081.07Z" fill="url(#paint0_linear_723_1338)"/>
<defs>
<linearGradient id="paint0_linear_723_1338" x1="542" y1="-11" x2="542" y2="289" gradientUnits="userSpaceOnUse">
<stop stop-color="#0866B0"/>
<stop offset="1" stop-color="#46CAE9"/>
</linearGradient>
</defs>
</svg>
